<svg id="Layer_1" data-name="Layer 1" xmlns="http://www.w3.org/2000/svg" viewBox="0 0 217.19 218.87"><title>RISD</title><path d="M117.44,190.47c-36.47,0-69.77-31.5-69.77-70.93S77.91,46.94,118,47c41.31,0.11,72,32.59,72,72s-31.48,71.4-72.55,71.4h0Zm0.48-148.57C75,41.79,42.57,77.34,42.57,119.6s35.68,76,74.77,76c44,0,77.75-34.26,77.75-76.52S162.18,42,117.92,41.91h0Zm-0.86,179.94c-52.42,0-100.28-45.28-100.28-102S60.25,15.52,117.84,15.68c59.37,0.16,103.51,46.85,103.51,103.53S176.11,221.84,117.06,221.84h0ZM117.77,9.33C56.62,9.16,10.47,59.77,10.47,120S61.29,228.2,116.94,228.2c62.68,0,110.72-48.78,110.72-109S180.8,9.5,117.77,9.33h0Z" transform="translate(-10.47 -9.33)"/><path d="M73.42,188.76a21,21,0,0,1-.36,5l1.39,0.76,2-3.37c0.56-.94-0.41-1.58,0-2.17a0.47,0.47,0,0,1,.66-0.1l4.75,2.78a0.47,0.47,0,0,1,.2.64c-0.34.53-1.25-.07-1.87,1l-6,10.16c-0.65,1.14.14,2-.08,2.32a0.45,0.45,0,0,1-.65.08l-4.85-2.9-1.88-1.21c-2.41-1.54-3.92-4.2-2.22-6.91a5.33,5.33,0,0,1,4.89-2.23,40.28,40.28,0,0,0-.2-6.48c-0.08-.65-0.88-2.07-0.71-2.42h0.3a11.43,11.43,0,0,1,2.37,1.11,4.79,4.79,0,0,1,2.31,4h0Zm-3.23,12.31a0.24,0.24,0,0,0,.32-0.05l2.7-4.43c-2.42-1.21-3.42-1.66-5,.78a2.37,2.37,0,0,0,.63,2.88l1.32,0.82h0Z" transform="translate(-10.47 -9.33)"/><path d="M55.33,170.44a0.45,0.45,0,0,1,.65.06l3.69,4.13a0.48,0.48,0,0,1,.07.65c-0.58.58-1.42,0-1.85,0.38l-3.44,3.21a46,46,0,0,0,4.28,4.26c1.18-1.18,3.06-3.38,3.06-3.38,0.44-.48,0-1.2.55-1.78,0.26-.26.38-0.2,0.69,0.07l4.1,3.65a0.45,0.45,0,0,1,.07.65c-0.46.46-1.29,0.09-1.82,0.65l-8.48,8.84c-0.63.67,0.05,1.11-.65,1.82a0.48,0.48,0,0,1-.65-0.07l-3.9-3.51a0.45,0.45,0,0,1-.07-0.65c0.7-.71,1.18,0,1.75-0.59,0,0,2.4-2.51,3.49-3.67a37.19,37.19,0,0,1-4.36-4.35c-1.25,1.15-3.61,3.38-3.61,3.38-0.45.41,0.05,1.11-.65,1.82A0.45,0.45,0,0,1,47.6,186L44.13,182a0.48,0.48,0,0,1-.07-0.65c0.77-.77,1.1,0,1.77-0.6l8.92-8.29c0.38-.34,0-1.49.58-2h0Z" transform="translate(-10.47 -9.33)"/><path d="M48,174.07c-4.57,2.85-9.55,1.09-12.25-3.25-2.82-4.53-2.08-9.25,2.62-12.17s9.55-1.18,12.3,3.23,1.87,9.38-2.66,12.2h0Zm-3.37-4.13c2.16-1.35,5.26-4.17,3.57-6.88s-4-1.8-6.3-.39c-2,1.27-5.3,4.38-3.69,7s4.34,1.61,6.42.32h0Z" transform="translate(-10.47 -9.33)"/><path d="M42.31,145.48c0.28,0.8.33,1.71,0.6,2.49,0.54,1.56,1.2,3.1,1.8,4.64a0.66,0.66,0,0,1-.24.88c-0.64.22-1-1-2.46-.51-2.09.72-5.23,2-7.46,2.83l-2.35.94c-1.87.74-1.34,2.15-2.16,2.44a0.48,0.48,0,0,1-.55-0.35l-1.33-3.26-1.37-3.69a10.45,10.45,0,0,1-.49-6.63,8.32,8.32,0,0,1,5.44-5.51c5-1.71,8.93,1,10.57,5.75h0Zm-13.47,4.74a20,20,0,0,0,.75,2c0.09,0.18.18,0.22,0.29,0.16a1.77,1.77,0,0,0,.34-0.14c2.18-.9,7.35-2.71,9.82-3.66a3.43,3.43,0,0,0,0-1.87c-1.06-3.07-4-3.05-6.64-2.15-2.36.81-5.54,2.83-4.55,5.7h0Z" transform="translate(-10.47 -9.33)"/><path d="M21.22,126.69a0.31,0.31,0,0,1,.34-0.37,14.75,14.75,0,0,1,3.64-.09,0.72,0.72,0,0,1,.55.58c0.11,0.77-1.94,1-1.84,1.86s0.24,2.17.48,3.51c0.07,0.28.14,0.3,0.29,0.28l4.11-.72c0.12,0,.21-0.08.15-0.34a13.36,13.36,0,0,0-.5-2.43,7.82,7.82,0,0,1-.8-1,0.65,0.65,0,0,1,.56-0.84,15.17,15.17,0,0,0,3,.09,0.67,0.67,0,0,1,.51.63c0.05,0.36-.87.94-0.77,1.63a2.05,2.05,0,0,0,.06.38c0.1,0.7.2,1.2,0.2,1.2,0,0.29.11,0.23,0.27,0.21l4.07-.69c0.22,0,.27-0.14.24-0.4,0,0-.3-2.26-0.45-3.24-0.17-1.2-2.14-1.75-2.25-2.49a0.44,0.44,0,0,1,.4-0.47c0.34,0,3.54.79,3.95,0.85a0.56,0.56,0,0,1,.43.41c0.28,2.46,1,7.5,1.47,10a0.57,0.57,0,0,1-.62.6c-0.5.07-1-1-2-.82-2.28.33-5.69,1-8.21,1.48-1.45.28-2.31,0.43-2.31,0.43-2,.36-1.71,1.87-2.58,2a0.46,0.46,0,0,1-.48-0.45L22,132.11a38.37,38.37,0,0,1-.53-4.33c0-.36-0.2-0.71-0.25-1.09h0Z" transform="translate(-10.47 -9.33)"/><path d="M27.15,117.11a2.65,2.65,0,0,1,2.69-2.59,2.74,2.74,0,0,1,2.69,2.84,2.69,2.69,0,0,1-2.67,2.54,2.73,2.73,0,0,1-2.71-2.79h0Z" transform="translate(-10.47 -9.33)"/><path d="M35.76,109.66l-11.88-1.55c-1.13-.16-0.94.75-1.95,0.61a0.4,0.4,0,0,1-.3-0.51s0.27-2.12.38-2.93l0.38-2.74a0.41,0.41,0,0,1,.44-0.38c1,0.14.58,0.94,1.71,1.09L36.41,105c1.47,0.2,1.21-.93,2.17-0.8a0.39,0.39,0,0,1,.3.48c-0.13.94-.34,2.11-0.47,3l-0.13.91L38,110.76a0.42,0.42,0,0,1-.42.36c-0.94-.11-0.12-1.24-1.85-1.46h0Z" transform="translate(-10.47 -9.33)"/><path d="M34.88,99c0.16-.56,1.8-0.78,2.33-1.41A3.46,3.46,0,0,0,38,96.38a1.61,1.61,0,0,0-1-2c-1.84-.51-4.06,5.44-8.41,4.22a5.07,5.07,0,0,1-2.83-1.95,7,7,0,0,1-.86-6.21,10.7,10.7,0,0,1,1.16-2.7,1.07,1.07,0,0,1,1-.6,19.58,19.58,0,0,1,3.28,2.23,0.85,0.85,0,0,1,0,.49c-0.15.54-1.65,0.5-2.05,0.86a3.54,3.54,0,0,0-1,1.75,1.68,1.68,0,0,0,1.19,2.14c2.38,0.67,3.13-5.9,9.49-4.12a4.72,4.72,0,0,1,3.17,5.67c-0.36,1.31-.47.88-1.07,3a17.51,17.51,0,0,0,.08,1.81,0.94,0.94,0,0,1-.52.51,5.17,5.17,0,0,1-.55-0.1,26,26,0,0,1-4-1.66A0.56,0.56,0,0,1,34.88,99h0Z" transform="translate(-10.47 -9.33)"/><path d="M42.87,89.73a0.45,0.45,0,0,1-.59.29c-0.59-.27-0.28-1.41-1.37-1.89l-10.73-4.7c-1-.41-1,0.7-2.12.2A0.47,0.47,0,0,1,27.89,83c0.64-1.73,1.43-3.56,2.17-5.09a0.45,0.45,0,0,1,.59-0.29c1,0.45.47,1.42,1.25,1.75L42.47,84c0.35-.7.67-1.4,1-2.1,0.93-2-.79-3.84-0.43-4.61a0.46,0.46,0,0,1,.78-0.17s3.44,3.3,3.28,3.6a84.76,84.76,0,0,0-4.22,9h0Z" transform="translate(-10.47 -9.33)"/><path d="M55.84,67.6c-0.9,1.27-1.37,1.77-3,1.35-1.14-.27-2.16-0.55-3.33-0.84A35.44,35.44,0,0,0,46.74,72a12.48,12.48,0,0,0,1.87,2.57,5.35,5.35,0,0,0,1.2.32,0.49,0.49,0,0,1,0,.66l-1.85,3a0.45,0.45,0,0,1-.63.18,0.84,0.84,0,0,1-.21-0.33,6.08,6.08,0,0,0-.86-2.06c-1.17-1.66-6.47-9.83-7.42-10.5-0.36-.25-1.41.1-1.77-0.15a0.41,0.41,0,0,1,0-.59,47.35,47.35,0,0,1,3.06-4.2c0.31-.43,1.74.19,2.16,0.31,4.17,1.16,8.41,2.39,12.61,3.46,0.89,0.21,2.52-.15,2.75,0a0.46,0.46,0,0,1,.08.65c-0.57.81-1.35,1.45-1.92,2.26h0Zm-10.7,2.32a22.09,22.09,0,0,1,1.79-2.53l-4.65-1.33,2.86,3.86h0Z" transform="translate(-10.47 -9.33)"/><path d="M60.79,58.76c0.85,0.83,1.64.08,2,.47a0.49,0.49,0,0,1-.1.65l-3.84,3.74a0.45,0.45,0,0,1-.66,0c-0.37-.41.32-1.24-0.4-2L50.12,54c-1.41-1.41-2.47-.38-3.06-1a0.48,0.48,0,0,1,.1-0.65c0.64-.67,1.92-2,2.6-2.62a0.58,0.58,0,0,1,.4-0.13l12.29,1.17c-1.39-1.68-4.75-5.24-4.75-5.24-0.87-1-1.55-.27-1.94-0.7a0.44,0.44,0,0,1,.12-0.63c0.84-.77,2.85-2.38,3.81-3.09a0.48,0.48,0,0,1,.65,0c0.38,0.41-.45.84,0.5,2l9,11.05a0.32,0.32,0,0,1,0,.5c-0.61.55-2,.4-2.71,0.33-3.79-.42-7.58-0.85-11.38-1.11l5,5h0Z" transform="translate(-10.47 -9.33)"/><path d="M79.5,47.87c-0.74.41-1.62,0.63-2.34,1-1.44.8-2.84,1.72-4.25,2.59a0.66,0.66,0,0,1-.9-0.08c-0.33-.59.82-1.18,0.07-2.51C71,47,69.23,44.09,68,42L66.65,39.9c-1.07-1.71-2.35-.94-2.78-1.7a0.48,0.48,0,0,1,.24-0.61l3-1.88,3.38-2a10.45,10.45,0,0,1,6.44-1.64,8.32,8.32,0,0,1,6.38,4.38c2.55,4.58.61,9-3.8,11.42h0Zm-7-12.43a20.53,20.53,0,0,0-1.81,1.09c-0.16.11-.18,0.21-0.1,0.31a1.67,1.67,0,0,0,.2.31c1.27,2,4,6.76,5.33,9a3.42,3.42,0,0,0,1.84-.33c2.84-1.58,2.3-4.5,1-6.91-1.22-2.18-3.76-5-6.41-3.48h0Z" transform="translate(-10.47 -9.33)"/><path d="M90.41,31.42a2.65,2.65,0,0,1,3.34,1.69,2.73,2.73,0,0,1-1.79,3.47,2.68,2.68,0,0,1-3.28-1.68,2.72,2.72,0,0,1,1.74-3.48h0Z" transform="translate(-10.47 -9.33)"/><path d="M100.82,34.24c0.57-.1,1.48,1.3,2.28,1.5a3.5,3.5,0,0,0,1.42.22,1.61,1.61,0,0,0,1.37-1.76c-0.33-1.89-6.65-1.34-7.42-5.78A5.08,5.08,0,0,1,99,25a7,7,0,0,1,5.24-3.44,10.57,10.57,0,0,1,2.93-.11,1.06,1.06,0,0,1,1,.64,19.5,19.5,0,0,1-.6,3.92,0.82,0.82,0,0,1-.42.25c-0.55.09-1.16-1.28-1.66-1.49a3.55,3.55,0,0,0-2-.12,1.67,1.67,0,0,0-1.43,2c0.42,2.44,6.67.3,7.79,6.8a4.73,4.73,0,0,1-3.76,5.3c-1.34.23-1,0-3.17,0.33a17.52,17.52,0,0,0-1.6.84,1,1,0,0,1-.68-0.25,4.82,4.82,0,0,1-.14-0.54,25.78,25.78,0,0,1-.24-4.36,0.56,0.56,0,0,1,.57-0.54h0Z" transform="translate(-10.47 -9.33)"/><path d="M126.85,35.38A8.21,8.21,0,0,1,121.08,38c-5.12,0-9.29-3.44-9.29-8.78,0-5.12,4.15-8.63,9.12-8.63,1.77,0,3.59.22,5.36,0.32a0.53,0.53,0,0,1,.31.63c-0.1,1.16-.36,2.5-0.48,3.61a0.44,0.44,0,0,1-.41.51,0.35,0.35,0,0,1-.32-0.1,5.42,5.42,0,0,0-4-2.21c-3.39,0-4.32,2.77-4.32,5.67,0,3.37,1.62,6.13,5.31,6.13a7,7,0,0,0,3.59-.92,0.58,0.58,0,0,1,.29-0.07,1.27,1.27,0,0,1,.66,1l-0.07.17h0Z" transform="translate(-10.47 -9.33)"/><path d="M144.61,40.82a0.45,0.45,0,0,1-.58.3l-5.35-1.45a0.48,0.48,0,0,1-.41-0.51c0.17-.81,1.2-0.76,1.35-1.33l1.13-4.57A45.47,45.47,0,0,0,134.83,32c-0.34,1.64-.72,4.51-0.72,4.51-0.11.64,0.69,1,.52,1.79-0.08.36-.2,0.38-0.61,0.32l-5.43-.82a0.45,0.45,0,0,1-.41-0.51c0.13-.64,1-0.78,1.17-1.54l2.28-12c0.17-.91-0.65-0.91-0.45-1.88a0.48,0.48,0,0,1,.58-0.3l5.18,0.82a0.45,0.45,0,0,1,.41.51c-0.2,1-1,.63-1.15,1.44,0,0-.64,3.41-0.92,5a37.2,37.2,0,0,1,6,1.27c0.42-1.65,1.18-4.8,1.18-4.8,0.15-.59-0.65-0.91-0.45-1.88a0.44,0.44,0,0,1,.58-0.3L147.68,25a0.48,0.48,0,0,1,.41.51c-0.22,1.07-.94.57-1.15,1.47L144,38.8c-0.13.49,0.77,1.28,0.62,2h0Z" transform="translate(-10.47 -9.33)"/><path d="M149.35,34c2.32-4.85,7.47-6,12.08-3.84,4.81,2.3,6.72,6.69,4.33,11.67s-7.42,6.13-12.1,3.89S147,38.83,149.35,34h0Zm5.06,1.67c-1.1,2.29-2.2,6.34.69,7.72s4.37-.65,5.52-3.06c1-2.16,2.11-6.54-.62-7.85s-4.53,1-5.59,3.19h0Z" transform="translate(-10.47 -9.33)"/><path d="M168.29,43.41c3.39-4.18,8.67-4.14,12.65-.92,4.14,3.36,5,8.07,1.49,12.36s-8.65,4.23-12.68,1-4.82-8.26-1.46-12.4h0Zm4.53,2.8c-1.61,2-3.62,5.65-1.13,7.67s4.4,0.39,6.08-1.68c1.51-1.86,3.58-5.87,1.23-7.78s-4.63-.1-6.18,1.8h0Z" transform="translate(-10.47 -9.33)"/><path d="M178.14,62.43a0.45,0.45,0,0,1,0-.65c0.5-.42,1.4.35,2.29-0.43l8.83-7.7c0.78-.69-0.18-1.24.73-2a0.47,0.47,0,0,1,.64.13c1.29,1.32,2.61,2.82,3.67,4.13a0.45,0.45,0,0,1,0,.66c-0.82.68-1.48-.18-2.12,0.38l-8.7,7.59c0.48,0.61,1,1.21,1.47,1.8,1.41,1.69,3.81.93,4.35,1.58a0.46,0.46,0,0,1-.17.78s-4.46,1.7-4.66,1.42a84.62,84.62,0,0,0-6.35-7.68h0Z" transform="translate(-10.47 -9.33)"/><path d="M197.63,70.78a2.65,2.65,0,0,1-.87,3.64,2.74,2.74,0,0,1-3.79-.95,2.68,2.68,0,0,1,.88-3.58,2.73,2.73,0,0,1,3.79.89h0Z" transform="translate(-10.47 -9.33)"/><path d="M199.62,78.44c5-1.91,9.58.78,11.39,5.57,1.89,5,.24,9.47-4.93,11.43s-9.6-.7-11.44-5.55,0-9.56,5-11.45h0Zm2.5,4.7c-2.38.9-6,3.07-4.84,6.06s3.61,2.55,6.1,1.61c2.25-.85,6-3.27,5-6.11s-3.95-2.42-6.24-1.55h0Z" transform="translate(-10.47 -9.33)"/><path d="M206.51,104.44l-2.17.43-2.33.48c-1.45.3-1.28,1.16-1.85,1.26-0.31.05-.42-0.42-0.45-0.63l-1-5.4a0.4,0.4,0,0,1,.31-0.5c0.55-.09.82,1.06,2,0.84l2.31-.45c2-.39,4.22-0.91,6-1.32,1.44-.33,2.3-0.5,2.3-0.5,2-.42,1.66-1.91,2.52-2.06a0.47,0.47,0,0,1,.5.43l1.09,5.4c0.37,1.85.46,2.63,0.62,3.83,0,0.36.22,0.7,0.29,1.08s-0.09.34-.33,0.38a15.24,15.24,0,0,1-3.66.19,0.72,0.72,0,0,1-.57-0.57c-0.13-.76,1.91-1,1.78-1.91a17.26,17.26,0,0,0-.33-2.06c-0.07-.28-0.15-0.29-0.29-0.27l-4.09.83c-0.12,0-.21.08-0.13,0.34a13.4,13.4,0,0,0,.57,2.41,7.75,7.75,0,0,1,.83.94,0.65,0.65,0,0,1-.54.86,14.92,14.92,0,0,0-3,0,0.67,0.67,0,0,1-.53-0.62c-0.06-.36.68-0.93,0.55-1.62a2,2,0,0,0-.07-0.38,9.67,9.67,0,0,1-.13-1.21c0-.29-0.12-0.23-0.28-0.2h0Z" transform="translate(-10.47 -9.33)"/><path d="M211.12,115.82a2.65,2.65,0,0,1-2.56,2.73,2.73,2.73,0,0,1-2.83-2.7,2.69,2.69,0,0,1,2.54-2.68,2.73,2.73,0,0,1,2.85,2.65h0Z" transform="translate(-10.47 -9.33)"/><path d="M199.63,130.42c0.12-.84.49-1.67,0.6-2.48,0.23-1.63.35-3.3,0.52-4.95a0.67,0.67,0,0,1,.61-0.67c0.67,0.1.44,1.36,2,1.58,2.19,0.31,5.54.65,7.93,0.9l2.51,0.24c2,0.19,2.17-1.3,3-1.18a0.49,0.49,0,0,1,.34.56l-0.31,3.51-0.47,3.9a10.45,10.45,0,0,1-2.6,6.12,8.33,8.33,0,0,1-7.36,2.42c-5.18-.75-7.49-5-6.77-9.95h0Zm14.15,1.95a20.52,20.52,0,0,0,.23-2.1c0-.2-0.06-0.28-0.18-0.27a1.67,1.67,0,0,0-.36,0c-2.35-.19-7.78-1-10.41-1.23a3.45,3.45,0,0,0-.85,1.66c-0.46,3.22,2.19,4.55,4.92,5,2.47,0.36,6.22,0,6.65-3h0Z" transform="translate(-10.47 -9.33)"/><path d="M209.79,156.81c-0.08.23-.24,0.25-0.47,0.17a15,15,0,0,1-3.28-1.59,0.73,0.73,0,0,1-.22-0.77c0.25-.73,2.17,0,2.48-0.81s0.78-2,1.17-3.34c0.07-.28,0-0.33-0.13-0.38l-4-1.24c-0.12,0-.22,0-0.29.23a13.35,13.35,0,0,0-.67,2.39,7.71,7.71,0,0,1,.27,1.22,0.65,0.65,0,0,1-.89.49,15,15,0,0,0-2.59-1.43,0.67,0.67,0,0,1-.16-0.8c0.12-.34,1.2-0.43,1.43-1.1a2.09,2.09,0,0,0,.13-0.37c0.23-.66.37-1.15,0.37-1.15,0.09-.28,0-0.25-0.15-0.31l-3.93-1.25c-0.21-.07-0.31,0-0.39.25,0,0-.76,2.15-1.09,3.09-0.39,1.15,1.1,2.53.86,3.24a0.44,0.44,0,0,1-.57.24c-0.32-.11-2.79-2.32-3.12-2.56a0.54,0.54,0,0,1-.2-0.55c0.88-2.32,2.55-7.12,3.26-9.55a0.58,0.58,0,0,1,.83-0.25c0.48,0.17.43,1.3,1.36,1.63,2.18,0.75,5.51,1.72,8,2.44,1.42,0.41,2.26.67,2.26,0.67,1.93,0.59,2.38-.87,3.21-0.59a0.47,0.47,0,0,1,.22.62l-1.94,6.18a38.63,38.63,0,0,1-1.51,4.1c-0.14.34-.14,0.72-0.27,1.09h0Z" transform="translate(-10.47 -9.33)"/><path d="M196.75,157.25c-0.28.51-1.93,0.35-2.59,0.85a3.43,3.43,0,0,0-1.06,1,1.61,1.61,0,0,0,.52,2.17c1.68,0.92,5.19-4.37,9.15-2.2a5.1,5.1,0,0,1,2.31,2.54,7,7,0,0,1-.57,6.24,10.73,10.73,0,0,1-1.74,2.37,1.07,1.07,0,0,1-1.11.36,19.57,19.57,0,0,1-2.69-2.91,0.82,0.82,0,0,1,.07-0.49c0.27-.49,1.72-0.11,2.2-0.37a3.55,3.55,0,0,0,1.34-1.48,1.68,1.68,0,0,0-.67-2.36c-2.17-1.19-4.39,5-10.17,1.86a4.72,4.72,0,0,1-1.8-6.24c0.65-1.19.66-.75,1.72-2.68,0.3-.55.12-1.32,0.34-1.78a0.94,0.94,0,0,1,.62-0.38,4.38,4.38,0,0,1,.51.23,25.71,25.71,0,0,1,3.56,2.53,0.56,0.56,0,0,1,.07.78h0Z" transform="translate(-10.47 -9.33)"/><path d="M188.52,166l9.75,7c0.92,0.67,1.18-.22,2,0.38a0.4,0.4,0,0,1,0,.59l-1.72,2.41L197,178.59a0.41,0.41,0,0,1-.57.13c-0.84-.61-0.07-1.1-1-1.77l-9.64-7.12c-1.2-.87-1.5.26-2.29-0.31a0.39,0.39,0,0,1,0-.56c0.55-.77,1.29-1.7,1.83-2.45l0.54-.75L187,164a0.41,0.41,0,0,1,.54-0.12c0.78,0.53-.48,1.15,1,2.16h0Z" transform="translate(-10.47 -9.33)"/><path d="M171.73,181.53a0.37,0.37,0,0,1,.1-0.51c0.38-.38.86-0.69,1.23-1.07,0.85-.86,1.38-2,2.24-2.91,3.64-3.66,9.31-5.24,13.35-1.23s2.47,10-1.12,13.59c-0.53.53-4,3.39-4.43,2.91-0.05-.05-1.36-2.59-1.5-2.83a0.56,0.56,0,0,1,0-.67c0.32-.33,2.61-0.11,3.53-1a5.22,5.22,0,0,0,.21-7.58c-2.27-2.25-5.77-3.45-8.22-1a9.06,9.06,0,0,0-.92,1l2.37,2.36c0.63,0.63,1.35-.4,1.92.16a0.45,0.45,0,0,1-.07.65L177,186.81a0.48,0.48,0,0,1-.63.05c-0.29-.29-0.5-1.08-0.79-1.47a16,16,0,0,0-1.29-1.28l-2.6-2.58h0Z" transform="translate(-10.47 -9.33)"/><path d="M166.74,187.82c-0.7-1-1.61-.35-1.9-0.8a0.48,0.48,0,0,1,.21-0.62l4.41-3.06a0.45,0.45,0,0,1,.65.07c0.3,0.47-.52,1.17.07,2l6.29,8.9c1.15,1.62,2.37.78,2.84,1.52a0.48,0.48,0,0,1-.2.62c-0.74.56-2.22,1.66-3,2.15a0.58,0.58,0,0,1-.42.07l-11.92-3.18c1.1,1.89,3.82,6,3.82,6,0.69,1.08,1.48.52,1.8,1a0.44,0.44,0,0,1-.22.6c-1,.62-3.2,1.88-4.27,2.42a0.49,0.49,0,0,1-.65-0.07c-0.3-.47.58-0.75-0.17-2.05L157,191a0.33,0.33,0,0,1,.12-0.48c0.69-.45,2-0.07,2.73.12,3.67,1,7.34,2.09,11,3l-4.15-5.75h0Z" transform="translate(-10.47 -9.33)"/><path d="M73.42,188.76a21,21,0,0,1-.36,5l1.39,0.76,2-3.37c0.56-.94-0.41-1.58,0-2.17a0.47,0.47,0,0,1,.66-0.1l4.75,2.78a0.47,0.47,0,0,1,.2.64c-0.34.53-1.25-.07-1.87,1l-6,10.16c-0.65,1.14.14,2-.08,2.32a0.45,0.45,0,0,1-.65.08l-4.85-2.9-1.88-1.21c-2.41-1.54-3.92-4.2-2.22-6.91a5.33,5.33,0,0,1,4.89-2.23,40.28,40.28,0,0,0-.2-6.48c-0.08-.65-0.88-2.07-0.71-2.42h0.3a11.43,11.43,0,0,1,2.37,1.11,4.79,4.79,0,0,1,2.31,4h0Zm-3.23,12.31a0.24,0.24,0,0,0,.32-0.05l2.7-4.43c-2.42-1.21-3.42-1.66-5,.78a2.37,2.37,0,0,0,.63,2.88l1.32,0.82h0Z" transform="translate(-10.47 -9.33)"/><path d="M55.33,170.44a0.45,0.45,0,0,1,.65.06l3.69,4.13a0.48,0.48,0,0,1,.07.65c-0.58.58-1.42,0-1.85,0.38l-3.44,3.21a46,46,0,0,0,4.28,4.26c1.18-1.18,3.06-3.38,3.06-3.38,0.44-.48,0-1.2.55-1.78,0.26-.26.38-0.2,0.69,0.07l4.1,3.65a0.45,0.45,0,0,1,.07.65c-0.46.46-1.29,0.09-1.82,0.65l-8.48,8.84c-0.63.67,0.05,1.11-.65,1.82a0.48,0.48,0,0,1-.65-0.07l-3.9-3.51a0.45,0.45,0,0,1-.07-0.65c0.7-.71,1.18,0,1.75-0.59,0,0,2.4-2.51,3.49-3.67a37.19,37.19,0,0,1-4.36-4.35c-1.25,1.15-3.61,3.38-3.61,3.38-0.45.41,0.05,1.11-.65,1.82A0.45,0.45,0,0,1,47.6,186L44.13,182a0.48,0.48,0,0,1-.07-0.65c0.77-.77,1.1,0,1.77-0.6l8.92-8.29c0.38-.34,0-1.49.58-2h0Z" transform="translate(-10.47 -9.33)"/><path d="M48,174.07c-4.57,2.85-9.55,1.09-12.25-3.25-2.82-4.53-2.08-9.25,2.62-12.17s9.55-1.18,12.3,3.23,1.87,9.38-2.66,12.2h0Zm-3.37-4.13c2.16-1.35,5.26-4.17,3.57-6.88s-4-1.8-6.3-.39c-2,1.27-5.3,4.38-3.69,7s4.34,1.61,6.42.32h0Z" transform="translate(-10.47 -9.33)"/><path d="M42.31,145.48c0.28,0.8.33,1.71,0.6,2.49,0.54,1.56,1.2,3.1,1.8,4.64a0.66,0.66,0,0,1-.24.88c-0.64.22-1-1-2.46-.51-2.09.72-5.23,2-7.46,2.83l-2.35.94c-1.87.74-1.34,2.15-2.16,2.44a0.48,0.48,0,0,1-.55-0.35l-1.33-3.26-1.37-3.69a10.45,10.45,0,0,1-.49-6.63,8.32,8.32,0,0,1,5.44-5.51c5-1.71,8.93,1,10.57,5.75h0Zm-13.47,4.74a20,20,0,0,0,.75,2c0.09,0.18.18,0.22,0.29,0.16a1.77,1.77,0,0,0,.34-0.14c2.18-.9,7.35-2.71,9.82-3.66a3.43,3.43,0,0,0,0-1.87c-1.06-3.07-4-3.05-6.64-2.15-2.36.81-5.54,2.83-4.55,5.7h0Z" transform="translate(-10.47 -9.33)"/><path d="M21.22,126.69a0.31,0.31,0,0,1,.34-0.37,14.75,14.75,0,0,1,3.64-.09,0.72,0.72,0,0,1,.55.58c0.11,0.77-1.94,1-1.84,1.86s0.24,2.17.48,3.51c0.07,0.28.14,0.3,0.29,0.28l4.11-.72c0.12,0,.21-0.08.15-0.34a13.36,13.36,0,0,0-.5-2.43,7.82,7.82,0,0,1-.8-1,0.65,0.65,0,0,1,.56-0.84,15.17,15.17,0,0,0,3,.09,0.67,0.67,0,0,1,.51.63c0.05,0.36-.87.94-0.77,1.63a2.05,2.05,0,0,0,.06.38c0.1,0.7.2,1.2,0.2,1.2,0,0.29.11,0.23,0.27,0.21l4.07-.69c0.22,0,.27-0.14.24-0.4,0,0-.3-2.26-0.45-3.24-0.17-1.2-2.14-1.75-2.25-2.49a0.44,0.44,0,0,1,.4-0.47c0.34,0,3.54.79,3.95,0.85a0.56,0.56,0,0,1,.43.41c0.28,2.46,1,7.5,1.47,10a0.57,0.57,0,0,1-.62.6c-0.5.07-1-1-2-.82-2.28.33-5.69,1-8.21,1.48-1.45.28-2.31,0.43-2.31,0.43-2,.36-1.71,1.87-2.58,2a0.46,0.46,0,0,1-.48-0.45L22,132.11a38.37,38.37,0,0,1-.53-4.33c0-.36-0.2-0.71-0.25-1.09h0Z" transform="translate(-10.47 -9.33)"/><path d="M27.15,117.11a2.65,2.65,0,0,1,2.69-2.59,2.74,2.74,0,0,1,2.69,2.84,2.69,2.69,0,0,1-2.67,2.54,2.73,2.73,0,0,1-2.71-2.79h0Z" transform="translate(-10.47 -9.33)"/><path d="M35.76,109.66l-11.88-1.55c-1.13-.16-0.94.75-1.95,0.61a0.4,0.4,0,0,1-.3-0.51s0.27-2.12.38-2.93l0.38-2.74a0.41,0.41,0,0,1,.44-0.38c1,0.14.58,0.94,1.71,1.09L36.41,105c1.47,0.2,1.21-.93,2.17-0.8a0.39,0.39,0,0,1,.3.48c-0.13.94-.34,2.11-0.47,3l-0.13.91L38,110.76a0.42,0.42,0,0,1-.42.36c-0.94-.11-0.12-1.24-1.85-1.46h0Z" transform="translate(-10.47 -9.33)"/><path d="M34.88,99c0.16-.56,1.8-0.78,2.33-1.41A3.46,3.46,0,0,0,38,96.38a1.61,1.61,0,0,0-1-2c-1.84-.51-4.06,5.44-8.41,4.22a5.07,5.07,0,0,1-2.83-1.95,7,7,0,0,1-.86-6.21,10.7,10.7,0,0,1,1.16-2.7,1.07,1.07,0,0,1,1-.6,19.58,19.58,0,0,1,3.28,2.23,0.85,0.85,0,0,1,0,.49c-0.15.54-1.65,0.5-2.05,0.86a3.54,3.54,0,0,0-1,1.75,1.68,1.68,0,0,0,1.19,2.14c2.38,0.67,3.13-5.9,9.49-4.12a4.72,4.72,0,0,1,3.17,5.67c-0.36,1.31-.47.88-1.07,3a17.51,17.51,0,0,0,.08,1.81,0.94,0.94,0,0,1-.52.51,5.17,5.17,0,0,1-.55-0.1,26,26,0,0,1-4-1.66A0.56,0.56,0,0,1,34.88,99h0Z" transform="translate(-10.47 -9.33)"/><path d="M42.87,89.73a0.45,0.45,0,0,1-.59.29c-0.59-.27-0.28-1.41-1.37-1.89l-10.73-4.7c-1-.41-1,0.7-2.12.2A0.47,0.47,0,0,1,27.89,83c0.64-1.73,1.43-3.56,2.17-5.09a0.45,0.45,0,0,1,.59-0.29c1,0.45.47,1.42,1.25,1.75L42.47,84c0.35-.7.67-1.4,1-2.1,0.93-2-.79-3.84-0.43-4.61a0.46,0.46,0,0,1,.78-0.17s3.44,3.3,3.28,3.6a84.76,84.76,0,0,0-4.22,9h0Z" transform="translate(-10.47 -9.33)"/><path d="M55.84,67.6c-0.9,1.27-1.37,1.77-3,1.35-1.14-.27-2.16-0.55-3.33-0.84A35.44,35.44,0,0,0,46.74,72a12.48,12.48,0,0,0,1.87,2.57,5.35,5.35,0,0,0,1.2.32,0.49,0.49,0,0,1,0,.66l-1.85,3a0.45,0.45,0,0,1-.63.18,0.84,0.84,0,0,1-.21-0.33,6.08,6.08,0,0,0-.86-2.06c-1.17-1.66-6.47-9.83-7.42-10.5-0.36-.25-1.41.1-1.77-0.15a0.41,0.41,0,0,1,0-.59,47.35,47.35,0,0,1,3.06-4.2c0.31-.43,1.74.19,2.16,0.31,4.17,1.16,8.41,2.39,12.61,3.46,0.89,0.21,2.52-.15,2.75,0a0.46,0.46,0,0,1,.08.65c-0.57.81-1.35,1.45-1.92,2.26h0Zm-10.7,2.32a22.09,22.09,0,0,1,1.79-2.53l-4.65-1.33,2.86,3.86h0Z" transform="translate(-10.47 -9.33)"/><path d="M60.79,58.76c0.85,0.83,1.64.08,2,.47a0.49,0.49,0,0,1-.1.65l-3.84,3.74a0.45,0.45,0,0,1-.66,0c-0.37-.41.32-1.24-0.4-2L50.12,54c-1.41-1.41-2.47-.38-3.06-1a0.48,0.48,0,0,1,.1-0.65c0.64-.67,1.92-2,2.6-2.62a0.58,0.58,0,0,1,.4-0.13l12.29,1.17c-1.39-1.68-4.75-5.24-4.75-5.24-0.87-1-1.55-.27-1.94-0.7a0.44,0.44,0,0,1,.12-0.63c0.84-.77,2.85-2.38,3.81-3.09a0.48,0.48,0,0,1,.65,0c0.38,0.41-.45.84,0.5,2l9,11.05a0.32,0.32,0,0,1,0,.5c-0.61.55-2,.4-2.71,0.33-3.79-.42-7.58-0.85-11.38-1.11l5,5h0Z" transform="translate(-10.47 -9.33)"/><path d="M79.5,47.87c-0.74.41-1.62,0.63-2.34,1-1.44.8-2.84,1.72-4.25,2.59a0.66,0.66,0,0,1-.9-0.08c-0.33-.59.82-1.18,0.07-2.51C71,47,69.23,44.09,68,42L66.65,39.9c-1.07-1.71-2.35-.94-2.78-1.7a0.48,0.48,0,0,1,.24-0.61l3-1.88,3.38-2a10.45,10.45,0,0,1,6.44-1.64,8.32,8.32,0,0,1,6.38,4.38c2.55,4.58.61,9-3.8,11.42h0Zm-7-12.43a20.53,20.53,0,0,0-1.81,1.09c-0.16.11-.18,0.21-0.1,0.31a1.67,1.67,0,0,0,.2.31c1.27,2,4,6.76,5.33,9a3.42,3.42,0,0,0,1.84-.33c2.84-1.58,2.3-4.5,1-6.91-1.22-2.18-3.76-5-6.41-3.48h0Z" transform="translate(-10.47 -9.33)"/><path d="M90.41,31.42a2.65,2.65,0,0,1,3.34,1.69,2.73,2.73,0,0,1-1.79,3.47,2.68,2.68,0,0,1-3.28-1.68,2.72,2.72,0,0,1,1.74-3.48h0Z" transform="translate(-10.47 -9.33)"/><path d="M100.82,34.24c0.57-.1,1.48,1.3,2.28,1.5a3.5,3.5,0,0,0,1.42.22,1.61,1.61,0,0,0,1.37-1.76c-0.33-1.89-6.65-1.34-7.42-5.78A5.08,5.08,0,0,1,99,25a7,7,0,0,1,5.24-3.44,10.57,10.57,0,0,1,2.93-.11,1.06,1.06,0,0,1,1,.64,19.5,19.5,0,0,1-.6,3.92,0.82,0.82,0,0,1-.42.25c-0.55.09-1.16-1.28-1.66-1.49a3.55,3.55,0,0,0-2-.12,1.67,1.67,0,0,0-1.43,2c0.42,2.44,6.67.3,7.79,6.8a4.73,4.73,0,0,1-3.76,5.3c-1.34.23-1,0-3.17,0.33a17.52,17.52,0,0,0-1.6.84,1,1,0,0,1-.68-0.25,4.82,4.82,0,0,1-.14-0.54,25.78,25.78,0,0,1-.24-4.36,0.56,0.56,0,0,1,.57-0.54h0Z" transform="translate(-10.47 -9.33)"/><path d="M126.85,35.38A8.21,8.21,0,0,1,121.08,38c-5.12,0-9.29-3.44-9.29-8.78,0-5.12,4.15-8.63,9.12-8.63,1.77,0,3.59.22,5.36,0.32a0.53,0.53,0,0,1,.31.63c-0.1,1.16-.36,2.5-0.48,3.61a0.44,0.44,0,0,1-.41.51,0.35,0.35,0,0,1-.32-0.1,5.42,5.42,0,0,0-4-2.21c-3.39,0-4.32,2.77-4.32,5.67,0,3.37,1.62,6.13,5.31,6.13a7,7,0,0,0,3.59-.92,0.58,0.58,0,0,1,.29-0.07,1.27,1.27,0,0,1,.66,1l-0.07.17h0Z" transform="translate(-10.47 -9.33)"/><path d="M144.61,40.82a0.45,0.45,0,0,1-.58.3l-5.35-1.45a0.48,0.48,0,0,1-.41-0.51c0.17-.81,1.2-0.76,1.35-1.33l1.13-4.57A45.47,45.47,0,0,0,134.83,32c-0.34,1.64-.72,4.51-0.72,4.51-0.11.64,0.69,1,.52,1.79-0.08.36-.2,0.38-0.61,0.32l-5.43-.82a0.45,0.45,0,0,1-.41-0.51c0.13-.64,1-0.78,1.17-1.54l2.28-12c0.17-.91-0.65-0.91-0.45-1.88a0.48,0.48,0,0,1,.58-0.3l5.18,0.82a0.45,0.45,0,0,1,.41.51c-0.2,1-1,.63-1.15,1.44,0,0-.64,3.41-0.92,5a37.2,37.2,0,0,1,6,1.27c0.42-1.65,1.18-4.8,1.18-4.8,0.15-.59-0.65-0.91-0.45-1.88a0.44,0.44,0,0,1,.58-0.3L147.68,25a0.48,0.48,0,0,1,.41.51c-0.22,1.07-.94.57-1.15,1.47L144,38.8c-0.13.49,0.77,1.28,0.62,2h0Z" transform="translate(-10.47 -9.33)"/><path d="M149.35,34c2.32-4.85,7.47-6,12.08-3.84,4.81,2.3,6.72,6.69,4.33,11.67s-7.42,6.13-12.1,3.89S147,38.83,149.35,34h0Zm5.06,1.67c-1.1,2.29-2.2,6.34.69,7.72s4.37-.65,5.52-3.06c1-2.16,2.11-6.54-.62-7.85s-4.53,1-5.59,3.19h0Z" transform="translate(-10.47 -9.33)"/><path d="M168.29,43.41c3.39-4.18,8.67-4.14,12.65-.92,4.14,3.36,5,8.07,1.49,12.36s-8.65,4.23-12.68,1-4.82-8.26-1.46-12.4h0Zm4.53,2.8c-1.61,2-3.62,5.65-1.13,7.67s4.4,0.39,6.08-1.68c1.51-1.86,3.58-5.87,1.23-7.78s-4.63-.1-6.18,1.8h0Z" transform="translate(-10.47 -9.33)"/><path d="M178.14,62.43a0.45,0.45,0,0,1,0-.65c0.5-.42,1.4.35,2.29-0.43l8.83-7.7c0.78-.69-0.18-1.24.73-2a0.47,0.47,0,0,1,.64.13c1.29,1.32,2.61,2.82,3.67,4.13a0.45,0.45,0,0,1,0,.66c-0.82.68-1.48-.18-2.12,0.38l-8.7,7.59c0.48,0.61,1,1.21,1.47,1.8,1.41,1.69,3.81.93,4.35,1.58a0.46,0.46,0,0,1-.17.78s-4.46,1.7-4.66,1.42a84.62,84.62,0,0,0-6.35-7.68h0Z" transform="translate(-10.47 -9.33)"/><path d="M197.63,70.78a2.65,2.65,0,0,1-.87,3.64,2.74,2.74,0,0,1-3.79-.95,2.68,2.68,0,0,1,.88-3.58,2.73,2.73,0,0,1,3.79.89h0Z" transform="translate(-10.47 -9.33)"/><path d="M199.62,78.44c5-1.91,9.58.78,11.39,5.57,1.89,5,.24,9.47-4.93,11.43s-9.6-.7-11.44-5.55,0-9.56,5-11.45h0Zm2.5,4.7c-2.38.9-6,3.07-4.84,6.06s3.61,2.55,6.1,1.61c2.25-.85,6-3.27,5-6.11s-3.95-2.42-6.24-1.55h0Z" transform="translate(-10.47 -9.33)"/><path d="M206.51,104.44l-2.17.43-2.33.48c-1.45.3-1.28,1.16-1.85,1.26-0.31.05-.42-0.42-0.45-0.63l-1-5.4a0.4,0.4,0,0,1,.31-0.5c0.55-.09.82,1.06,2,0.84l2.31-.45c2-.39,4.22-0.91,6-1.32,1.44-.33,2.3-0.5,2.3-0.5,2-.42,1.66-1.91,2.52-2.06a0.47,0.47,0,0,1,.5.43l1.09,5.4c0.37,1.85.46,2.63,0.62,3.83,0,0.36.22,0.7,0.29,1.08s-0.09.34-.33,0.38a15.24,15.24,0,0,1-3.66.19,0.72,0.72,0,0,1-.57-0.57c-0.13-.76,1.91-1,1.78-1.91a17.26,17.26,0,0,0-.33-2.06c-0.07-.28-0.15-0.29-0.29-0.27l-4.09.83c-0.12,0-.21.08-0.13,0.34a13.4,13.4,0,0,0,.57,2.41,7.75,7.75,0,0,1,.83.94,0.65,0.65,0,0,1-.54.86,14.92,14.92,0,0,0-3,0,0.67,0.67,0,0,1-.53-0.62c-0.06-.36.68-0.93,0.55-1.62a2,2,0,0,0-.07-0.38,9.67,9.67,0,0,1-.13-1.21c0-.29-0.12-0.23-0.28-0.2h0Z" transform="translate(-10.47 -9.33)"/><path d="M211.12,115.82a2.65,2.65,0,0,1-2.56,2.73,2.73,2.73,0,0,1-2.83-2.7,2.69,2.69,0,0,1,2.54-2.68,2.73,2.73,0,0,1,2.85,2.65h0Z" transform="translate(-10.47 -9.33)"/><path d="M199.63,130.42c0.12-.84.49-1.67,0.6-2.48,0.23-1.63.35-3.3,0.52-4.95a0.67,0.67,0,0,1,.61-0.67c0.67,0.1.44,1.36,2,1.58,2.19,0.31,5.54.65,7.93,0.9l2.51,0.24c2,0.19,2.17-1.3,3-1.18a0.49,0.49,0,0,1,.34.56l-0.31,3.51-0.47,3.9a10.45,10.45,0,0,1-2.6,6.12,8.33,8.33,0,0,1-7.36,2.42c-5.18-.75-7.49-5-6.77-9.95h0Zm14.15,1.95a20.52,20.52,0,0,0,.23-2.1c0-.2-0.06-0.28-0.18-0.27a1.67,1.67,0,0,0-.36,0c-2.35-.19-7.78-1-10.41-1.23a3.45,3.45,0,0,0-.85,1.66c-0.46,3.22,2.19,4.55,4.92,5,2.47,0.36,6.22,0,6.65-3h0Z" transform="translate(-10.47 -9.33)"/><path d="M209.79,156.81c-0.08.23-.24,0.25-0.47,0.17a15,15,0,0,1-3.28-1.59,0.73,0.73,0,0,1-.22-0.77c0.25-.73,2.17,0,2.48-0.81s0.78-2,1.17-3.34c0.07-.28,0-0.33-0.13-0.38l-4-1.24c-0.12,0-.22,0-0.29.23a13.35,13.35,0,0,0-.67,2.39,7.71,7.71,0,0,1,.27,1.22,0.65,0.65,0,0,1-.89.49,15,15,0,0,0-2.59-1.43,0.67,0.67,0,0,1-.16-0.8c0.12-.34,1.2-0.43,1.43-1.1a2.09,2.09,0,0,0,.13-0.37c0.23-.66.37-1.15,0.37-1.15,0.09-.28,0-0.25-0.15-0.31l-3.93-1.25c-0.21-.07-0.31,0-0.39.25,0,0-.76,2.15-1.09,3.09-0.39,1.15,1.1,2.53.86,3.24a0.44,0.44,0,0,1-.57.24c-0.32-.11-2.79-2.32-3.12-2.56a0.54,0.54,0,0,1-.2-0.55c0.88-2.32,2.55-7.12,3.26-9.55a0.58,0.58,0,0,1,.83-0.25c0.48,0.17.43,1.3,1.36,1.63,2.18,0.75,5.51,1.72,8,2.44,1.42,0.41,2.26.67,2.26,0.67,1.93,0.59,2.38-.87,3.21-0.59a0.47,0.47,0,0,1,.22.62l-1.94,6.18a38.63,38.63,0,0,1-1.51,4.1c-0.14.34-.14,0.72-0.27,1.09h0Z" transform="translate(-10.47 -9.33)"/><path d="M196.75,157.25c-0.28.51-1.93,0.35-2.59,0.85a3.43,3.43,0,0,0-1.06,1,1.61,1.61,0,0,0,.52,2.17c1.68,0.92,5.19-4.37,9.15-2.2a5.1,5.1,0,0,1,2.31,2.54,7,7,0,0,1-.57,6.24,10.73,10.73,0,0,1-1.74,2.37,1.07,1.07,0,0,1-1.11.36,19.57,19.57,0,0,1-2.69-2.91,0.82,0.82,0,0,1,.07-0.49c0.27-.49,1.72-0.11,2.2-0.37a3.55,3.55,0,0,0,1.34-1.48,1.68,1.68,0,0,0-.67-2.36c-2.17-1.19-4.39,5-10.17,1.86a4.72,4.72,0,0,1-1.8-6.24c0.65-1.19.66-.75,1.72-2.68,0.3-.55.12-1.32,0.34-1.78a0.94,0.94,0,0,1,.62-0.38,4.38,4.38,0,0,1,.51.23,25.71,25.71,0,0,1,3.56,2.53,0.56,0.56,0,0,1,.07.78h0Z" transform="translate(-10.47 -9.33)"/><path d="M188.52,166l9.75,7c0.92,0.67,1.18-.22,2,0.38a0.4,0.4,0,0,1,0,.59l-1.72,2.41L197,178.59a0.41,0.41,0,0,1-.57.13c-0.84-.61-0.07-1.1-1-1.77l-9.64-7.12c-1.2-.87-1.5.26-2.29-0.31a0.39,0.39,0,0,1,0-.56c0.55-.77,1.29-1.7,1.83-2.45l0.54-.75L187,164a0.41,0.41,0,0,1,.54-0.12c0.78,0.53-.48,1.15,1,2.16h0Z" transform="translate(-10.47 -9.33)"/><path d="M171.73,181.53a0.37,0.37,0,0,1,.1-0.51c0.38-.38.86-0.69,1.23-1.07,0.85-.86,1.38-2,2.24-2.91,3.64-3.66,9.31-5.24,13.35-1.23s2.47,10-1.12,13.59c-0.53.53-4,3.39-4.43,2.91-0.05-.05-1.36-2.59-1.5-2.83a0.56,0.56,0,0,1,0-.67c0.32-.33,2.61-0.11,3.53-1a5.22,5.22,0,0,0,.21-7.58c-2.27-2.25-5.77-3.45-8.22-1a9.06,9.06,0,0,0-.92,1l2.37,2.36c0.63,0.63,1.35-.4,1.92.16a0.45,0.45,0,0,1-.07.65L177,186.81a0.48,0.48,0,0,1-.63.05c-0.29-.29-0.5-1.08-0.79-1.47a16,16,0,0,0-1.29-1.28l-2.6-2.58h0Z" transform="translate(-10.47 -9.33)"/><path d="M166.74,187.82c-0.7-1-1.61-.35-1.9-0.8a0.48,0.48,0,0,1,.21-0.62l4.41-3.06a0.45,0.45,0,0,1,.65.07c0.3,0.47-.52,1.17.07,2l6.29,8.9c1.15,1.62,2.37.78,2.84,1.52a0.48,0.48,0,0,1-.2.62c-0.74.56-2.22,1.66-3,2.15a0.58,0.58,0,0,1-.42.07l-11.92-3.18c1.1,1.89,3.82,6,3.82,6,0.69,1.08,1.48.52,1.8,1a0.44,0.44,0,0,1-.22.6c-1,.62-3.2,1.88-4.27,2.42a0.49,0.49,0,0,1-.65-0.07c-0.3-.47.58-0.75-0.17-2.05L157,191a0.33,0.33,0,0,1,.12-0.48c0.69-.45,2-0.07,2.73.12,3.67,1,7.34,2.09,11,3l-4.15-5.75h0Z" transform="translate(-10.47 -9.33)"/><path d="M80,204.51a2.3,2.3,0,0,1,3-1.28,2.26,2.26,0,0,1,1.18,3A2.27,2.27,0,1,1,80,204.51h0Zm2.68-6.3a2.3,2.3,0,0,1,3-1.28,2.27,2.27,0,0,1,1.18,3,2.28,2.28,0,1,1-4.22-1.69h0Z" transform="translate(-10.47 -9.33)"/><path d="M93.9,200.63c-0.36-.2-1.92-0.76-1.76-1.33,0.07-.24-0.49-0.83.88-0.76a32,32,0,0,0,5.62-.09,2.56,2.56,0,0,1,.43-0.06,0.47,0.47,0,0,1,.26.64l-3.52,12.74a3.51,3.51,0,0,0-.06,2.45,0.63,0.63,0,0,1,0,.4,0.47,0.47,0,0,1-.61.27L89,213.15a0.5,0.5,0,0,1-.48-0.49,0.88,0.88,0,0,1,.67-0.46c1.64-.45,1.72-0.58,2.15-2.13l2.61-9.45h0Z" transform="translate(-10.47 -9.33)"/><path d="M100.57,211.54c0.23-2,1.64-3,3.45-3.62a4.76,4.76,0,0,1-2-4.24c0.41-3.61,4.16-4.33,7.15-4,2.8,0.32,6.14,1.87,5.75,5.24a3.67,3.67,0,0,1-2.81,3c1.71,1.19,2.84,2.62,2.59,4.8-0.45,3.91-4.1,5-7.5,4.57-3.1-.35-7-2-6.61-5.79h0Zm3.84,0a2.88,2.88,0,0,0,2.62,3.19c1.13,0.13,2.53-.36,2.68-1.66,0.19-1.65-2.63-2.89-3.85-3.6a2.7,2.7,0,0,0-1.46,2.08h0Zm2.44-8.09c-0.16,1.43,2.2,2.54,3.23,3.13A2.09,2.09,0,0,0,111,205a2.46,2.46,0,0,0-2.17-2.84,1.62,1.62,0,0,0-2,1.27h0Z" transform="translate(-10.47 -9.33)"/><path d="M121.82,203.79c-1.41.09-2.48,1.1-3.76,1.7a0.5,0.5,0,0,1-.27.09,0.42,0.42,0,0,1-.45-0.42c0-.57.76-4.31,1.36-4.33,4.36-.06,9.51-0.51,11.65-0.75a0.46,0.46,0,0,1,.52.41c0,0.22-2.22,5.52-2.39,6.08-0.35,1.09-2.39,6.48-3,7.8a7.57,7.57,0,0,1-5.75,3.86c-1.53.13-1.37-.13-0.45-1.21,0.79-.89,1.92-2.13,2.06-2.26,1.78-3.19,1.82-5.67,2.92-10.87a10.41,10.41,0,0,0-2.49-.11h0Z" transform="translate(-10.47 -9.33)"/><path d="M137,201.91c-1.37.34-2.25,1.53-3.39,2.35a0.48,0.48,0,0,1-.25.14,0.42,0.42,0,0,1-.52-0.33c-0.14-.55,0-4.38.56-4.5,4.28-.84,9.27-2.2,11.33-2.82a0.46,0.46,0,0,1,.59.31c0.05,0.22-1.2,5.83-1.26,6.41-0.15,1.14-1.19,6.8-1.53,8.21a7.58,7.58,0,0,1-5,4.83c-1.48.4-1.37,0.11-.66-1.11,0.61-1,1.51-2.44,1.62-2.6,1.18-3.45.78-5.9,0.93-11.22a10.62,10.62,0,0,0-2.47.33h0Z" transform="translate(-10.47 -9.33)"/><path d="M149.93,200.36a2.3,2.3,0,0,1,1.22-3.07,2.27,2.27,0,0,1,2.95,1.25,2.27,2.27,0,1,1-4.17,1.82h0Zm2.6,6.33a2.3,2.3,0,0,1,1.22-3.06,2.27,2.27,0,0,1,2.95,1.25,2.27,2.27,0,1,1-4.17,1.82h0Z" transform="translate(-10.47 -9.33)"/><path d="M54.75,147.16l-0.23-.55m0.23,0.55" transform="translate(-10.47 -9.33)"/><path d="M138.81,98.9c0,1.21-4.11,5.77-5.17,6.71a5.28,5.28,0,0,1-.94.29c-1.45,0-1.36-3.54-4.39-3.54a5.16,5.16,0,0,0-5.36,5c0,7.65,15.15,11.23,15.15,20.87,0,9.93-11.59,15-20.08,15-1.27,0-4.35-.7-4.35-2.37,0-1,3.4-7.63,3.62-8.07a1.28,1.28,0,0,1,1-.49c3.7-.06-0.47,4.32,7.76,4.32,2.31,0,5-1.17,5-4,0-7.15-15.51-11.77-15.51-22.17,0-8.45,9.09-14,17.46-14,1.56,0,5.81.15,5.81,2.42h0Z" transform="translate(-10.47 -9.33)"/><path d="M112.88,97.73a11.91,11.91,0,0,1-1.6,2.53c-1,1.34-1.09.92-1.49,3.21-1,5.5-3,18.95-4.61,28.32-0.67,3.93-.65,4.64-0.42,5s0.81,0.46,2.87.53c1.7,0.06,2.06-.09,1.95.89-0.2,1.69-2.56,3.47-3.64,4.15-0.48.3-8.87,0.13-9.38,0.09-4.77-.4-1.52-2.52-0.59-4.93,0.21-.54,4.33-26.86,5.54-34.15,0.13-.78.08-1.28-1.74-1.28a31.8,31.8,0,0,0-3.31.08A1.14,1.14,0,0,1,95,101.05c0-1,2.13-2.51,2.77-3,0.89-.64,1.2-1.25,2.78-1.27s7.4,0,8.64,0,3.72-.29,3.72.88h0Z" transform="translate(-10.47 -9.33)"/><path d="M147.29,129.7c-0.39,2.77-.48,7-2.46,9.16-0.6.65-1.51,1.17-1.51,2.17,0,2.07,1.83,1.6,3.32,1.6,2.39,0,4.62-.1,7-0.1,20.27,0,30.61-16.39,30.61-26.46,0-11.27-3.73-19.18-16.24-19.18-1.75,0-3.4.15-5.51,0.15l-2.63-.11a50.42,50.42,0,0,1,.65-6,25.43,25.43,0,0,0,2.78.15c5.08,0,12.3-1.35,12.3-7.81,0-2.68-3.15-3.66-5.32-3.66-6.59,0-11.54,1.79-14.39,7a38.28,38.28,0,0,1-6.48-2.56A17.38,17.38,0,0,0,150.85,77c0-5-2.37-9.71-5.69-13.39,4.4,0.29,10.08,2,10.74,6.45,0.28,1.83.07,3-1.65,3.94-0.3.16-1.11,0.55-1.23,0.62a0.81,0.81,0,0,0,.43,1.5c4.67,0,8.36-2.52,8.36-6.1,0-8.93-11.92-9-20.32-9.72a41.13,41.13,0,0,0-23.55-8.06c-6,0-17,2.38-18.18,9.68-1,0-2.12,0-3.26,0-9.31,0-21.77,5.49-21.77,16.29A8.93,8.93,0,0,0,75,80.08a34.38,34.38,0,0,0-8.6,16.73c-0.51,0-1,0-1.52.06-2,.09-4,1.11-6,2.15-3.45,1.81-6.57,4.93-6.57,8.89,0,1,.45,3.2,1.66,3.2s5.48-3.59,5.48-4.79c0-.7-0.25-1.37-0.25-2.07,0-3.18,3.87-2.57,6.08-2.52a0.29,0.29,0,0,1,.26.36c0,0.27-6,34.56-6,34.56,0,0.22-.21.95-0.21,0.95-0.64,1.24-2.83,2.57-2.79,3.43,0,1.13,1.64,1.52,3.47,1.52l7.14,0c1.78,0,5-2.48,5-4.27,0-1-.94-0.81-1.61-0.81s-3,.12-2.9-1.05c0.39-4.73,1.49-10.37,2.22-15.21,0.37-.14,3.73.14,4.37,0.13,2.53,11.93,5.92,17.67,12.86,27.15-7.8,2.08-14.35,5.8-14.35,12.43,0,7.06,9.83,11.8,16,11.8a43.32,43.32,0,0,0,4.66-.26c2.76,9.95,16.12,12.72,25.42,12.72,9.57,0,23-5.27,25.88-15.32,10.32-1.48,20.65-5,20.65-12.94,0-5.92-8.54-6.48-12.79-6.48a43.49,43.49,0,0,0-14.87,3.17c-8.21-5.52-21.1-7.65-28.33-7.65a110.92,110.92,0,0,0-14.6,1l-1.55-2.16c-4.57-6.37-11.43-19.16-11.43-24.62l0-.37c4.52-2,8.45-6.54,9.07-11.37a12.46,12.46,0,0,0,.08-1.85c-0.12-5.19-1.13-8.54-7.38-9.45-2.56-.37-6.72.38-10-0.25,0,0,1.24-9,3.61-12.6C80.31,87.83,86,89.77,91,89.77a29.83,29.83,0,0,0,16.87-5.39c7.29,4.14,15.75,8.39,25.68,8.39,6.59,0,11.2-2.18,14-5.63a34.73,34.73,0,0,0,7,2.81c-0.75,2.38-1.18,4.38-1.82,6.74,0,0-1.87,0-2.79.14-1.72.23-3.24,1.4-4.77,2.28-3.44,2-6.29,4.87-6.29,9,0,1,.45,2.53,1.66,2.53s5.47-3.59,5.47-4.8c0-.65-0.25-1.26-0.25-1.9,0-2.84,3.5-2.27,5.6-2.26,0.45,0,.34.35,0.34,0.35Zm19.18-47.24c1,0,2.82.17,2.82,1.66,0,2.64-3.76,3.66-5.82,3.66a26.19,26.19,0,0,1-2.64-.13C161.8,84.75,163.48,82.46,166.47,82.46Zm-19.61,71.46c3.54,0,9.47.3,9.47,5.15,0,3.83-5.28,6-11.14,7.11v-0.3c0-4.19-2-7.61-5-10.35A22.29,22.29,0,0,1,146.86,153.91Zm-46.7,12.3a7.76,7.76,0,0,1,1-3.92q1.93,1.35,4,2.53,1.24,0.72,2.52,1.34a64.49,64.49,0,0,1-7.37,2A13.38,13.38,0,0,1,100.17,166.21Zm14.62-2.7a54,54,0,0,1-8.81-5.3,16.87,16.87,0,0,1,6.82-1.47,13.18,13.18,0,0,1,9,3.71C119.51,161.49,117.16,162.53,114.79,163.51Zm8.59-.62a6.22,6.22,0,0,1,.38,2.16,4.87,4.87,0,0,1-.29,1.58,41.05,41.05,0,0,1-5.07-1.57C120.09,164.34,121.76,163.62,123.38,162.89Zm-5.27,18.94c-7,0-14.5-4.21-17-10.78a96,96,0,0,0,10.44-3.25,48.92,48.92,0,0,0,9.62,2.43c-1.75,1.6-6.92,4-9.14,2-0.42-.38-0.57-0.61-1-1-0.95-.89-2-0.23-1.56.76a9.2,9.2,0,0,0,1.75,2.23,9,9,0,0,0,6.13,1.84,13.59,13.59,0,0,0,10.93-5.25c0.29-.35.78-0.14,1.52-0.17,1.78-.08,4.63.13,6.94,0C135.38,179.77,126.84,181.83,118.11,181.83Zm18.76-14.56c-2.68.21-4.92,0.29-6.13,0.27l-0.93,0a6.89,6.89,0,0,0,.1-1.15,11.2,11.2,0,0,0-1.46-5.78l0.92-.42c1.1-.5,2.58-1.2,4.23-1.94A15.43,15.43,0,0,1,136.88,167.27Zm-28.4-18.68c7.64,0,17.25,2.1,23.1,7.45-1.65.72-3.32,1.47-5,2.24-3.34-3.09-8.68-4.2-13.61-4.2a26.46,26.46,0,0,0-9.66,2A48.57,48.57,0,0,1,97.22,150,58.68,58.68,0,0,1,108.48,148.59Zm-11,10.9c-2.77,2.32-4.71,5.35-4.66,9V169c-0.44,0-.89,0-1.33,0-4.75,0-10.47-2.92-10.47-8.31,0-3.87,3.95-6.67,9-8.6A61.83,61.83,0,0,0,97.51,159.49ZM73.65,101.77c2.15,0,5.16-.07,6.91.59,2,0.75,2.65,1.82,2.65,5.15,0,4.11-1.85,9.47-6.71,9.46l-5.11-.13s-0.87.21-.64-1.08c0.59-3.37,2.09-13.19,2.17-13.55A0.62,0.62,0,0,1,73.65,101.77Zm46.12-45.9c4.13,0,10.81,1.92,16,4.75a27.29,27.29,0,0,0-4.39.68,11.55,11.55,0,0,0-5.65-1.68,8.64,8.64,0,0,0-5.39,2c-0.75.8,0,1.17,0.53,1,0.22-.07,1-0.3,1.5-0.42a7.54,7.54,0,0,1,2.1-.26,7.67,7.67,0,0,1,2.67.64,46.44,46.44,0,0,0-7.23,3.84,40.37,40.37,0,0,0-12-3.83C109.47,58.24,114.86,55.87,119.78,55.87Zm6.35,13.9a38.66,38.66,0,0,1,5.18-3.1,6.55,6.55,0,0,1-.27,6C129.27,71.61,127.65,70.65,126.13,69.77Zm3,4.82a10.1,10.1,0,0,1-5.4,1.55,17.53,17.53,0,0,1-4.59-.82c1.57-1.36,3.16-2.69,4.78-3.95C125.59,72.31,127.31,73.38,129.17,74.59ZM90,86.11c-3.89,0-6.78-3.55-7.59-7.16A13.83,13.83,0,0,1,90,76.64c3.52,0,7.41,1.83,11.76,4.25C97.74,84,93.88,86.11,90,86.11Zm14.87-7.7c-4.93-2.79-9.62-5.1-14.71-5.1a19.85,19.85,0,0,0-7.77,1.56C83.83,68,92.16,65.56,98.5,65.5H100c1.09,3.58,4.55,7,8.94,9.49C107.58,76.16,106.23,77.32,104.9,78.42Zm2.61-12.59a37.12,37.12,0,0,1,9.86,2.34c-1.76,1.29-3.46,2.64-5.11,4C109.76,70.52,107.8,68.37,107.52,65.83Zm23.73,22.11c-7.87,0-14.25-2.79-20-5.94,1.63-1.25,3.21-2.58,4.78-3.93a28.59,28.59,0,0,0,8.43,1.4,18.8,18.8,0,0,0,8.78-2.1c2.92,2.09,5.66,4.2,8.43,6.11C139.44,86.12,136.08,87.94,131.24,87.94Zm12.15-7.27c-2.68-1.69-5.29-3.49-7.84-5.18a7.27,7.27,0,0,0,1.84-5A9.13,9.13,0,0,0,135.62,65a25.25,25.25,0,0,1,4.8-1C143.16,66.44,145,69.54,145,73A18.09,18.09,0,0,1,143.39,80.67Zm16,22c-0.07.26,0-.33,0,0,0.11-.71.14-0.76,1-0.73,0.55,0,1.13,0,2.55.07a22.27,22.27,0,0,1,2.38.3c5.6,0.85,11.38,4.16,10.79,16.84-0.48,10.3-6.79,17.45-18.78,17.45a7.58,7.58,0,0,1-2.41-.24C156.56,125,157.85,114.32,159.42,102.68Z" transform="translate(-10.47 -9.33)"/></svg>