<?xml version="1.0" encoding="utf-8"?>
<!-- Generator: Adobe Illustrator 18.0.0, SVG Export Plug-In . SVG Version: 6.00 Build 0)  -->
<!DOCTYPE svg PUBLIC "-//W3C//DTD SVG 1.1//EN" "http://www.w3.org/Graphics/SVG/1.1/DTD/svg11.dtd">
<svg version="1.1" id="Layer_1" xmlns="http://www.w3.org/2000/svg" xmlns:xlink="http://www.w3.org/1999/xlink" x="0px" y="0px"
	 viewBox="0 0 162 108" enable-background="new 0 0 162 108" xml:space="preserve">
<polygon fill="none" stroke="#000000" stroke-width="0.125" stroke-miterlimit="10" points="55.8,44.4 47.9,63.4 39.8,44.4 47.9,38 
	"/>
<polygon opacity="0.75" fill="#356D8B" stroke="#000000" stroke-width="0.125" stroke-miterlimit="10" points="72.4,44.4 64.5,63.4 
	56.4,44.4 64.5,38 "/>
<polygon opacity="0.75" fill="#F1563A" stroke="#000000" stroke-width="0.125" stroke-miterlimit="10" points="89.1,44.4 81.1,63.4 
	73.1,44.4 81.1,38 "/>
<polygon opacity="0.75" fill="#A2C7A6" stroke="#000000" stroke-width="0.125" stroke-miterlimit="10" points="81.4,63.4 89.4,44.4 
	97.4,63.4 89.4,69.8 "/>
<polygon opacity="0.75" fill="#767F56" stroke="#000000" stroke-width="0.125" stroke-miterlimit="10" points="64.8,63.4 72.7,44.4 
	80.8,63.4 72.7,69.8 "/>
<polygon fill="none" stroke="#000000" stroke-width="0.125" stroke-miterlimit="10" points="48.2,63.4 56.1,44.4 64.2,63.4 
	56.1,69.8 "/>
<polygon fill="none" stroke="#000000" stroke-width="0.125" stroke-miterlimit="10" points="55.8,18.7 47.9,37.8 39.8,18.7 
	47.9,12.3 "/>
<polygon fill="none" stroke="#000000" stroke-width="0.125" stroke-miterlimit="10" points="72.4,18.7 64.5,37.8 56.4,18.7 
	64.5,12.3 "/>
<polygon opacity="0.75" fill="#316E73" stroke="#000000" stroke-width="0.125" stroke-miterlimit="10" points="89.1,18.7 81.1,37.8 
	73.1,18.7 81.1,12.3 "/>
<polygon opacity="0.75" fill="#B29C85" stroke="#000000" stroke-width="0.125" stroke-miterlimit="10" points="81.4,37.8 89.4,18.7 
	97.4,37.8 89.4,44.2 "/>
<polygon opacity="0.75" fill="#3B424C" stroke="#000000" stroke-width="0.125" stroke-miterlimit="10" points="64.8,37.8 72.7,18.7 
	80.8,37.8 72.7,44.2 "/>
<polygon fill="none" stroke="#000000" stroke-width="0.125" stroke-miterlimit="10" points="48.2,37.8 56.1,18.7 64.2,37.8 
	56.1,44.2 "/>
<polygon opacity="0.75" fill="#F39585" stroke="#000000" stroke-width="0.125" stroke-miterlimit="10" points="105.7,44.4 
	97.8,63.4 89.7,44.4 97.8,38 "/>
<polygon fill="none" stroke="#000000" stroke-width="0.125" stroke-miterlimit="10" points="122.4,44.4 114.4,63.4 106.4,44.4 
	114.4,38 "/>
<polygon fill="none" stroke="#000000" stroke-width="0.125" stroke-miterlimit="10" points="139,44.4 131,63.4 123,44.4 131,38 "/>
<polygon fill="none" stroke="#000000" stroke-width="0.125" stroke-miterlimit="10" points="131.3,63.4 139.3,44.4 147.3,63.4 
	139.3,69.8 "/>
<polygon fill="none" stroke="#000000" stroke-width="0.125" stroke-miterlimit="10" points="114.7,63.4 122.7,44.4 130.7,63.4 
	122.7,69.8 "/>
<polygon fill="none" stroke="#000000" stroke-width="0.125" stroke-miterlimit="10" points="98.1,63.4 106,44.4 114.1,63.4 
	106,69.8 "/>
<polygon fill="none" stroke="#000000" stroke-width="0.125" stroke-miterlimit="10" points="105.7,18.7 97.9,37.8 89.7,18.8 
	97.6,12.3 "/>
<polygon fill="none" stroke="#000000" stroke-width="0.125" stroke-miterlimit="10" points="122.4,18.7 114.4,37.8 106.4,18.7 
	114.4,12.3 "/>
<polygon opacity="0.75" fill="#FAF06A" stroke="#000000" stroke-width="0.125" stroke-miterlimit="10" points="139,18.7 131,37.8 
	123,18.7 131,12.3 "/>
<polygon fill="none" stroke="#000000" stroke-width="0.125" stroke-miterlimit="10" points="131.3,37.8 139.3,18.7 147.3,37.8 
	139.3,44.2 "/>
<polygon fill="none" stroke="#000000" stroke-width="0.125" stroke-miterlimit="10" points="114.7,37.8 122.7,18.7 130.7,37.8 
	122.7,44.2 "/>
<polygon fill="none" stroke="#000000" stroke-width="0.125" stroke-miterlimit="10" points="98.1,37.8 106,18.7 114.1,37.8 
	106,44.2 "/>
<polygon fill="none" stroke="#000000" stroke-width="0.125" stroke-miterlimit="10" points="55.8,96 47.9,115 39.8,96 47.9,89.6 "/>
<polygon fill="none" stroke="#000000" stroke-width="0.125" stroke-miterlimit="10" points="72.4,96 64.5,115 56.4,96 64.5,89.6 "/>
<polygon fill="none" stroke="#000000" stroke-width="0.125" stroke-miterlimit="10" points="89.1,96 81.1,115 73.1,96 81.1,89.6 "/>
<polygon fill="none" stroke="#000000" stroke-width="0.125" stroke-miterlimit="10" points="81.4,115 89.4,96 97.4,115 89.4,121.4 
	"/>
<polygon fill="none" stroke="#000000" stroke-width="0.125" stroke-miterlimit="10" points="64.8,115 72.7,96 80.8,115 72.7,121.4 
	"/>
<polygon fill="none" stroke="#000000" stroke-width="0.125" stroke-miterlimit="10" points="48.2,115 56.1,96 64.2,115 56.1,121.4 
	"/>
<polygon fill="none" stroke="#000000" stroke-width="0.125" stroke-miterlimit="10" points="55.8,70.1 47.9,89.2 39.8,70.1 
	47.9,63.7 "/>
<polygon fill="none" stroke="#000000" stroke-width="0.125" stroke-miterlimit="10" points="72.4,70.1 64.5,89.2 56.4,70.1 
	64.5,63.7 "/>
<polygon opacity="0.75" fill="#1D181F" stroke="#000000" stroke-width="0.125" stroke-miterlimit="10" points="89.1,70.1 81.1,89.2 
	73.1,70.1 81.1,63.7 "/>
<polygon fill="none" stroke="#000000" stroke-width="0.125" stroke-miterlimit="10" points="81.4,89.2 89.4,70.1 97.4,89.2 
	89.4,95.6 "/>
<polygon fill="none" stroke="#000000" stroke-width="0.125" stroke-miterlimit="10" points="64.8,89.2 72.7,70.1 80.8,89.2 
	72.7,95.6 "/>
<polygon fill="none" stroke="#000000" stroke-width="0.125" stroke-miterlimit="10" points="48.2,89.2 56.1,70.1 64.2,89.2 
	56.1,95.6 "/>
<polygon fill="none" stroke="#000000" stroke-width="0.125" stroke-miterlimit="10" points="105.7,96 97.8,115 89.7,96 97.8,89.6 
	"/>
<polygon fill="none" stroke="#000000" stroke-width="0.125" stroke-miterlimit="10" points="122.4,96 114.4,115 106.4,96 
	114.4,89.6 "/>
<polygon fill="none" stroke="#000000" stroke-width="0.125" stroke-miterlimit="10" points="139,96 131,115 123,96 131,89.6 "/>
<polygon fill="none" stroke="#000000" stroke-width="0.125" stroke-miterlimit="10" points="131.3,115 139.3,96 147.3,115 
	139.3,121.4 "/>
<polygon fill="none" stroke="#000000" stroke-width="0.125" stroke-miterlimit="10" points="114.7,115 122.7,96 130.7,115 
	122.7,121.4 "/>
<polygon fill="none" stroke="#000000" stroke-width="0.125" stroke-miterlimit="10" points="98.1,115 106,96 114.1,115 106,121.4 
	"/>
<polygon fill="none" stroke="#000000" stroke-width="0.125" stroke-miterlimit="10" points="105.7,70.1 97.8,89.2 89.7,70.1 
	97.8,63.7 "/>
<polygon fill="none" stroke="#000000" stroke-width="0.125" stroke-miterlimit="10" points="122.4,70.1 114.4,89.2 106.4,70.1 
	114.4,63.7 "/>
<polygon opacity="0.75" fill="#A085AB" stroke="#000000" stroke-width="0.125" stroke-miterlimit="10" points="139,70.1 131,89.2 
	123,70.1 131,63.7 "/>
<polygon fill="none" stroke="#000000" stroke-width="0.125" stroke-miterlimit="10" points="131.3,89.2 139.3,70.1 147.3,89.2 
	139.3,95.6 "/>
<polygon fill="none" stroke="#000000" stroke-width="0.125" stroke-miterlimit="10" points="114.7,89.2 122.7,70.1 130.7,89.2 
	122.7,95.6 "/>
<polygon fill="none" stroke="#000000" stroke-width="0.125" stroke-miterlimit="10" points="98.1,89.2 106,70.1 114.1,89.2 
	106,95.6 "/>
<polygon fill="none" stroke="#000000" stroke-width="0.125" stroke-miterlimit="10" points="55.8,-7 47.9,12 39.8,-7 47.9,-13.4 "/>
<polygon fill="none" stroke="#000000" stroke-width="0.125" stroke-miterlimit="10" points="72.4,-7 64.5,12 56.4,-7 64.5,-13.4 "/>
<polygon fill="none" stroke="#000000" stroke-width="0.125" stroke-miterlimit="10" points="89.1,-7 81.1,12 73.1,-7 81.1,-13.4 "/>
<polygon fill="none" stroke="#000000" stroke-width="0.125" stroke-miterlimit="10" points="81.4,12 89.4,-7 97.4,12 89.4,18.4 "/>
<polygon fill="none" stroke="#000000" stroke-width="0.125" stroke-miterlimit="10" points="64.8,12 72.7,-7 80.8,12 72.7,18.4 "/>
<polygon fill="none" stroke="#000000" stroke-width="0.125" stroke-miterlimit="10" points="48.2,12 56.1,-7 64.2,12 56.1,18.4 "/>
<polygon fill="none" stroke="#000000" stroke-width="0.125" stroke-miterlimit="10" points="22.5,44.4 14.6,63.4 6.5,44.4 14.6,38 
	"/>
<polygon fill="none" stroke="#000000" stroke-width="0.125" stroke-miterlimit="10" points="39.1,44.4 31.2,63.4 23.1,44.4 31.2,38 
	"/>
<polygon fill="none" stroke="#000000" stroke-width="0.125" stroke-miterlimit="10" points="31.5,63.4 39.5,44.4 47.5,63.4 
	39.5,69.8 "/>
<polygon fill="none" stroke="#000000" stroke-width="0.125" stroke-miterlimit="10" points="14.9,63.4 22.8,44.4 30.9,63.4 
	22.8,69.8 "/>
<polygon fill="none" stroke="#000000" stroke-width="0.125" stroke-miterlimit="10" points="22.5,18.7 14.6,37.8 6.5,18.7 
	14.6,12.3 "/>
<polygon fill="none" stroke="#000000" stroke-width="0.125" stroke-miterlimit="10" points="39.1,18.7 31.2,37.8 23.1,18.7 
	31.2,12.3 "/>
<polygon opacity="0.75" fill="#F04C5A" stroke="#000000" stroke-width="0.125" stroke-miterlimit="10" points="31.5,37.8 39.5,18.7 
	47.5,37.8 39.5,44.2 "/>
<polygon fill="none" stroke="#000000" stroke-width="0.125" stroke-miterlimit="10" points="14.9,37.8 22.8,18.7 30.9,37.8 
	22.8,44.2 "/>
<polygon fill="none" stroke="#000000" stroke-width="0.125" stroke-miterlimit="10" points="22.5,96 14.6,115 6.5,96 14.6,89.6 "/>
<polygon fill="none" stroke="#000000" stroke-width="0.125" stroke-miterlimit="10" points="39.1,96 31.2,115 23.1,96 31.2,89.6 "/>
<polygon fill="none" stroke="#000000" stroke-width="0.125" stroke-miterlimit="10" points="31.5,115 39.5,96 47.5,115 39.5,121.4 
	"/>
<polygon fill="none" stroke="#000000" stroke-width="0.125" stroke-miterlimit="10" points="14.9,115 22.8,96 30.9,115 22.8,121.4 
	"/>
<polygon fill="none" stroke="#000000" stroke-width="0.125" stroke-miterlimit="10" points="22.5,70.1 14.6,89.2 6.5,70.1 
	14.6,63.7 "/>
<polygon fill="none" stroke="#000000" stroke-width="0.125" stroke-miterlimit="10" points="39.1,70.1 31.2,89.2 23.1,70.1 
	31.2,63.7 "/>
<polygon opacity="0.75" fill="#A1D07C" stroke="#000000" stroke-width="0.125" stroke-miterlimit="10" points="31.5,89.2 39.5,70.1 
	47.5,89.2 39.5,95.6 "/>
<polygon fill="none" stroke="#000000" stroke-width="0.125" stroke-miterlimit="10" points="14.9,89.2 22.8,70.1 30.9,89.2 
	22.8,95.6 "/>
<polygon fill="none" stroke="#000000" stroke-width="0.125" stroke-miterlimit="10" points="22.5,-7 14.6,12 6.5,-7 14.6,-13.4 "/>
<polygon fill="none" stroke="#000000" stroke-width="0.125" stroke-miterlimit="10" points="39.1,-7 31.2,12 23.1,-7 31.2,-13.4 "/>
<polygon fill="none" stroke="#000000" stroke-width="0.125" stroke-miterlimit="10" points="31.5,12 39.5,-7 47.5,12 39.5,18.4 "/>
<polygon fill="none" stroke="#000000" stroke-width="0.125" stroke-miterlimit="10" points="14.9,12 22.8,-7 30.9,12 22.8,18.4 "/>
<polygon fill="none" stroke="#000000" stroke-width="0.125" stroke-miterlimit="10" points="5.7,44.4 -2.2,63.4 -10.3,44.4 -2.2,38 
	"/>
<polygon fill="none" stroke="#000000" stroke-width="0.125" stroke-miterlimit="10" points="5.7,18.7 -2.2,37.8 -10.3,18.7 
	-2.2,12.3 "/>
<polygon fill="none" stroke="#000000" stroke-width="0.125" stroke-miterlimit="10" points="5.7,96 -2.2,115 -10.3,96 -2.2,89.6 "/>
<polygon fill="none" stroke="#000000" stroke-width="0.125" stroke-miterlimit="10" points="5.7,70.1 -2.2,89.2 -10.3,70.1 
	-2.2,63.7 "/>
<polygon fill="none" stroke="#000000" stroke-width="0.125" stroke-miterlimit="10" points="5.7,-7 -2.2,12 -10.3,-7 -2.2,-13.4 "/>
<polygon fill="none" stroke="#000000" stroke-width="0.125" stroke-miterlimit="10" points="-1.8,63.4 6.2,44.4 14.2,63.4 6.2,69.8 
	"/>
<polygon fill="none" stroke="#000000" stroke-width="0.125" stroke-miterlimit="10" points="-1.8,37.8 6.2,18.7 14.2,37.8 6.2,44.2 
	"/>
<polygon fill="none" stroke="#000000" stroke-width="0.125" stroke-miterlimit="10" points="-1.8,115 6.2,96 14.2,115 6.2,121.4 "/>
<polygon fill="none" stroke="#000000" stroke-width="0.125" stroke-miterlimit="10" points="-1.8,89.2 6.2,70.1 14.2,89.2 6.2,95.6 
	"/>
<polygon fill="none" stroke="#000000" stroke-width="0.125" stroke-miterlimit="10" points="-1.8,12 6.2,-7 14.2,12 6.2,18.4 "/>
<polygon fill="none" stroke="#000000" stroke-width="0.125" stroke-miterlimit="10" points="105.7,-7 97.8,12 89.7,-7 97.8,-13.4 
	"/>
<polygon fill="none" stroke="#000000" stroke-width="0.125" stroke-miterlimit="10" points="122.4,-7 114.4,12 106.4,-7 
	114.4,-13.4 "/>
<polygon fill="none" stroke="#000000" stroke-width="0.125" stroke-miterlimit="10" points="139,-7 131,12 123,-7 131,-13.4 "/>
<polygon fill="none" stroke="#000000" stroke-width="0.125" stroke-miterlimit="10" points="131.3,12 139.3,-7 147.3,12 139.3,18.4 
	"/>
<polygon fill="none" stroke="#000000" stroke-width="0.125" stroke-miterlimit="10" points="114.7,12 122.7,-7 130.7,12 122.7,18.4 
	"/>
<polygon fill="none" stroke="#000000" stroke-width="0.125" stroke-miterlimit="10" points="98.1,12 106,-7 114.1,12 106,18.4 "/>
<polygon fill="none" stroke="#000000" stroke-width="0.125" stroke-miterlimit="10" points="155.6,44.4 147.7,63.4 139.6,44.4 
	147.7,38 "/>
<polygon fill="none" stroke="#000000" stroke-width="0.125" stroke-miterlimit="10" points="172.3,44.4 164.3,63.4 156.3,44.4 
	164.3,38 "/>
<polygon fill="none" stroke="#000000" stroke-width="0.125" stroke-miterlimit="10" points="148,63.4 156,44.4 164,63.4 156,69.8 
	"/>
<polygon fill="none" stroke="#000000" stroke-width="0.125" stroke-miterlimit="10" points="155.6,18.7 147.7,37.8 139.6,18.7 
	147.7,12.3 "/>
<polygon fill="none" stroke="#000000" stroke-width="0.125" stroke-miterlimit="10" points="172.3,18.7 164.3,37.8 156.3,18.7 
	164.3,12.3 "/>
<polygon fill="none" stroke="#000000" stroke-width="0.125" stroke-miterlimit="10" points="148,37.8 156,18.7 164,37.8 156,44.2 
	"/>
<polygon fill="none" stroke="#000000" stroke-width="0.125" stroke-miterlimit="10" points="155.6,96 147.7,115 139.6,96 
	147.7,89.6 "/>
<polygon fill="none" stroke="#000000" stroke-width="0.125" stroke-miterlimit="10" points="172.3,96 164.3,115 156.3,96 
	164.3,89.6 "/>
<polygon fill="none" stroke="#000000" stroke-width="0.125" stroke-miterlimit="10" points="148,115 156,96 164,115 156,121.4 "/>
<polygon fill="none" stroke="#000000" stroke-width="0.125" stroke-miterlimit="10" points="155.6,70.1 147.7,89.2 139.6,70.1 
	147.7,63.7 "/>
<polygon fill="none" stroke="#000000" stroke-width="0.125" stroke-miterlimit="10" points="172.3,70.1 164.3,89.2 156.3,70.1 
	164.3,63.7 "/>
<polygon fill="none" stroke="#000000" stroke-width="0.125" stroke-miterlimit="10" points="148,89.2 156,70.1 164,89.2 156,95.6 
	"/>
<polygon fill="none" stroke="#000000" stroke-width="0.125" stroke-miterlimit="10" points="155.6,-7 147.7,12 139.6,-7 
	147.7,-13.4 "/>
<polygon fill="none" stroke="#000000" stroke-width="0.125" stroke-miterlimit="10" points="172.3,-7 164.3,12 156.3,-7 
	164.3,-13.4 "/>
<polygon fill="none" stroke="#000000" stroke-width="0.125" stroke-miterlimit="10" points="148,12 156,-7 164,12 156,18.4 "/>
</svg>
