<?xml version="1.0" encoding="utf-8"?>
<!-- Generator: Adobe Illustrator 18.0.0, SVG Export Plug-In . SVG Version: 6.00 Build 0)  -->
<!DOCTYPE svg PUBLIC "-//W3C//DTD SVG 1.1//EN" "http://www.w3.org/Graphics/SVG/1.1/DTD/svg11.dtd">
<svg version="1.1" id="Layer_1" xmlns="http://www.w3.org/2000/svg" xmlns:xlink="http://www.w3.org/1999/xlink" x="0px" y="0px"
	 viewBox="0 0 162 89.5" enable-background="new 0 0 162 89.5" xml:space="preserve">
<polygon fill="none" stroke="#000000" stroke-width="0.125" stroke-miterlimit="10" points="55.8,35.5 47.9,54.6 39.8,35.5 
	47.9,29.1 "/>
<polygon opacity="0.75" fill="#356D8B" stroke="#000000" stroke-width="0.125" stroke-miterlimit="10" points="72.4,35.5 64.5,54.6 
	56.4,35.5 64.5,29.1 "/>
<polygon opacity="0.75" fill="#F1563A" stroke="#000000" stroke-width="0.125" stroke-miterlimit="10" points="89.1,35.5 81.1,54.6 
	73.1,35.5 81.1,29.1 "/>
<polygon opacity="0.75" fill="#A2C7A6" stroke="#000000" stroke-width="0.125" stroke-miterlimit="10" points="81.4,54.6 89.4,35.5 
	97.4,54.6 89.4,61 "/>
<polygon opacity="0.75" fill="#767F56" stroke="#000000" stroke-width="0.125" stroke-miterlimit="10" points="64.8,54.6 72.7,35.5 
	80.8,54.6 72.7,61 "/>
<polygon fill="none" stroke="#000000" stroke-width="0.125" stroke-miterlimit="10" points="48.2,54.6 56.1,35.5 64.2,54.6 56.1,61 
	"/>
<polygon fill="none" stroke="#000000" stroke-width="0.125" stroke-miterlimit="10" points="55.8,9.9 47.9,29 39.8,9.9 47.9,3.5 "/>
<polygon fill="none" stroke="#000000" stroke-width="0.125" stroke-miterlimit="10" points="72.4,9.9 64.5,29 56.4,9.9 64.5,3.5 "/>
<polygon opacity="0.75" fill="#316E73" stroke="#000000" stroke-width="0.125" stroke-miterlimit="10" points="89.1,9.9 81.1,29 
	73.1,9.9 81.1,3.5 "/>
<polygon opacity="0.75" fill="#B29C85" stroke="#000000" stroke-width="0.125" stroke-miterlimit="10" points="81.4,29 89.4,9.9 
	97.4,29 89.4,35.4 "/>
<polygon opacity="0.75" fill="#3B424C" stroke="#000000" stroke-width="0.125" stroke-miterlimit="10" points="64.8,29 72.7,9.9 
	80.8,29 72.7,35.4 "/>
<polygon fill="none" stroke="#000000" stroke-width="0.125" stroke-miterlimit="10" points="48.2,29 56.1,9.9 64.2,29 56.1,35.4 "/>
<polygon opacity="0.75" fill="#F39585" stroke="#000000" stroke-width="0.125" stroke-miterlimit="10" points="105.7,35.5 
	97.8,54.6 89.7,35.5 97.8,29.1 "/>
<polygon fill="none" stroke="#000000" stroke-width="0.125" stroke-miterlimit="10" points="122.4,35.5 114.4,54.6 106.4,35.5 
	114.4,29.1 "/>
<polygon fill="none" stroke="#000000" stroke-width="0.125" stroke-miterlimit="10" points="139,35.5 131,54.6 123,35.5 131,29.1 
	"/>
<polygon fill="none" stroke="#000000" stroke-width="0.125" stroke-miterlimit="10" points="131.3,54.6 139.3,35.5 147.3,54.6 
	139.3,61 "/>
<polygon fill="none" stroke="#000000" stroke-width="0.125" stroke-miterlimit="10" points="114.7,54.6 122.7,35.5 130.7,54.6 
	122.7,61 "/>
<polygon fill="none" stroke="#000000" stroke-width="0.125" stroke-miterlimit="10" points="98.1,54.6 106,35.5 114.1,54.6 106,61 
	"/>
<polygon fill="none" stroke="#000000" stroke-width="0.125" stroke-miterlimit="10" points="105.7,9.8 97.9,29 89.7,10 97.6,3.5 "/>
<polygon fill="none" stroke="#000000" stroke-width="0.125" stroke-miterlimit="10" points="122.4,9.9 114.4,29 106.4,9.9 
	114.4,3.5 "/>
<polygon opacity="0.75" fill="#FAF06A" stroke="#000000" stroke-width="0.125" stroke-miterlimit="10" points="139,9.9 131,29 
	123,9.9 131,3.5 "/>
<polygon fill="none" stroke="#000000" stroke-width="0.125" stroke-miterlimit="10" points="131.3,29 139.3,9.9 147.3,29 
	139.3,35.4 "/>
<polygon fill="none" stroke="#000000" stroke-width="0.125" stroke-miterlimit="10" points="114.7,29 122.7,9.9 130.7,29 
	122.7,35.4 "/>
<polygon fill="none" stroke="#000000" stroke-width="0.125" stroke-miterlimit="10" points="98.1,29 106,9.9 114.1,29 106,35.4 "/>
<polygon fill="none" stroke="#000000" stroke-width="0.125" stroke-miterlimit="10" points="55.8,87.1 47.9,106.2 39.8,87.1 
	47.9,80.7 "/>
<polygon fill="none" stroke="#000000" stroke-width="0.125" stroke-miterlimit="10" points="72.4,87.1 64.5,106.2 56.4,87.1 
	64.5,80.7 "/>
<polygon fill="none" stroke="#000000" stroke-width="0.125" stroke-miterlimit="10" points="89.1,87.1 81.1,106.2 73.1,87.1 
	81.1,80.7 "/>
<polygon fill="none" stroke="#000000" stroke-width="0.125" stroke-miterlimit="10" points="81.4,106.2 89.4,87.1 97.4,106.2 
	89.4,112.6 "/>
<polygon fill="none" stroke="#000000" stroke-width="0.125" stroke-miterlimit="10" points="64.8,106.2 72.7,87.1 80.8,106.2 
	72.7,112.6 "/>
<polygon fill="none" stroke="#000000" stroke-width="0.125" stroke-miterlimit="10" points="48.2,106.2 56.1,87.1 64.2,106.2 
	56.1,112.6 "/>
<polygon fill="none" stroke="#000000" stroke-width="0.125" stroke-miterlimit="10" points="55.8,61.3 47.9,80.4 39.8,61.3 
	47.9,54.9 "/>
<polygon fill="none" stroke="#000000" stroke-width="0.125" stroke-miterlimit="10" points="72.4,61.3 64.5,80.4 56.4,61.3 
	64.5,54.9 "/>
<polygon opacity="0.75" fill="#1D181F" stroke="#000000" stroke-width="0.125" stroke-miterlimit="10" points="89.1,61.3 81.1,80.4 
	73.1,61.3 81.1,54.9 "/>
<polygon fill="none" stroke="#000000" stroke-width="0.125" stroke-miterlimit="10" points="81.4,80.4 89.4,61.3 97.4,80.4 
	89.4,86.8 "/>
<polygon fill="none" stroke="#000000" stroke-width="0.125" stroke-miterlimit="10" points="64.8,80.4 72.7,61.3 80.8,80.4 
	72.7,86.8 "/>
<polygon fill="none" stroke="#000000" stroke-width="0.125" stroke-miterlimit="10" points="48.2,80.4 56.1,61.3 64.2,80.4 
	56.1,86.8 "/>
<polygon fill="none" stroke="#000000" stroke-width="0.125" stroke-miterlimit="10" points="105.7,87.1 97.8,106.2 89.7,87.1 
	97.8,80.7 "/>
<polygon fill="none" stroke="#000000" stroke-width="0.125" stroke-miterlimit="10" points="122.4,87.1 114.4,106.2 106.4,87.1 
	114.4,80.7 "/>
<polygon fill="none" stroke="#000000" stroke-width="0.125" stroke-miterlimit="10" points="139,87.1 131,106.2 123,87.1 131,80.7 
	"/>
<polygon fill="none" stroke="#000000" stroke-width="0.125" stroke-miterlimit="10" points="131.3,106.2 139.3,87.1 147.3,106.2 
	139.3,112.6 "/>
<polygon fill="none" stroke="#000000" stroke-width="0.125" stroke-miterlimit="10" points="114.7,106.2 122.7,87.1 130.7,106.2 
	122.7,112.6 "/>
<polygon fill="none" stroke="#000000" stroke-width="0.125" stroke-miterlimit="10" points="98.1,106.2 106,87.1 114.1,106.2 
	106,112.6 "/>
<polygon fill="none" stroke="#000000" stroke-width="0.125" stroke-miterlimit="10" points="105.7,61.3 97.8,80.4 89.7,61.3 
	97.8,54.9 "/>
<polygon fill="none" stroke="#000000" stroke-width="0.125" stroke-miterlimit="10" points="122.4,61.3 114.4,80.4 106.4,61.3 
	114.4,54.9 "/>
<polygon opacity="0.75" fill="#A085AB" stroke="#000000" stroke-width="0.125" stroke-miterlimit="10" points="139,61.3 131,80.4 
	123,61.3 131,54.9 "/>
<polygon fill="none" stroke="#000000" stroke-width="0.125" stroke-miterlimit="10" points="131.3,80.4 139.3,61.3 147.3,80.4 
	139.3,86.8 "/>
<polygon fill="none" stroke="#000000" stroke-width="0.125" stroke-miterlimit="10" points="114.7,80.4 122.7,61.3 130.7,80.4 
	122.7,86.8 "/>
<polygon fill="none" stroke="#000000" stroke-width="0.125" stroke-miterlimit="10" points="98.1,80.4 106,61.3 114.1,80.4 
	106,86.8 "/>
<polygon fill="none" stroke="#000000" stroke-width="0.125" stroke-miterlimit="10" points="55.8,-15.9 47.9,3.2 39.8,-15.9 
	47.9,-22.3 "/>
<polygon fill="none" stroke="#000000" stroke-width="0.125" stroke-miterlimit="10" points="72.4,-15.9 64.5,3.2 56.4,-15.9 
	64.5,-22.3 "/>
<polygon fill="none" stroke="#000000" stroke-width="0.125" stroke-miterlimit="10" points="89.1,-15.9 81.1,3.2 73.1,-15.9 
	81.1,-22.3 "/>
<polygon fill="none" stroke="#000000" stroke-width="0.125" stroke-miterlimit="10" points="81.4,3.2 89.4,-15.9 97.4,3.2 89.4,9.6 
	"/>
<polygon fill="none" stroke="#000000" stroke-width="0.125" stroke-miterlimit="10" points="64.8,3.2 72.7,-15.9 80.8,3.2 72.7,9.6 
	"/>
<polygon fill="none" stroke="#000000" stroke-width="0.125" stroke-miterlimit="10" points="48.2,3.2 56.1,-15.9 64.2,3.2 56.1,9.6 
	"/>
<polygon fill="none" stroke="#000000" stroke-width="0.125" stroke-miterlimit="10" points="22.5,35.5 14.6,54.6 6.5,35.5 
	14.6,29.1 "/>
<polygon fill="none" stroke="#000000" stroke-width="0.125" stroke-miterlimit="10" points="39.1,35.5 31.2,54.6 23.1,35.5 
	31.2,29.1 "/>
<polygon fill="none" stroke="#000000" stroke-width="0.125" stroke-miterlimit="10" points="31.5,54.6 39.5,35.5 47.5,54.6 39.5,61 
	"/>
<polygon fill="none" stroke="#000000" stroke-width="0.125" stroke-miterlimit="10" points="14.9,54.6 22.8,35.5 30.9,54.6 22.8,61 
	"/>
<polygon fill="none" stroke="#000000" stroke-width="0.125" stroke-miterlimit="10" points="22.5,9.9 14.6,29 6.5,9.9 14.6,3.5 "/>
<polygon fill="none" stroke="#000000" stroke-width="0.125" stroke-miterlimit="10" points="39.1,9.9 31.2,29 23.1,9.9 31.2,3.5 "/>
<polygon opacity="0.75" fill="#F04C5A" stroke="#000000" stroke-width="0.125" stroke-miterlimit="10" points="31.5,29 39.5,9.9 
	47.5,29 39.5,35.4 "/>
<polygon fill="none" stroke="#000000" stroke-width="0.125" stroke-miterlimit="10" points="14.9,29 22.8,9.9 30.9,29 22.8,35.4 "/>
<polygon fill="none" stroke="#000000" stroke-width="0.125" stroke-miterlimit="10" points="22.5,87.1 14.6,106.2 6.5,87.1 
	14.6,80.7 "/>
<polygon fill="none" stroke="#000000" stroke-width="0.125" stroke-miterlimit="10" points="39.1,87.1 31.2,106.2 23.1,87.1 
	31.2,80.7 "/>
<polygon fill="none" stroke="#000000" stroke-width="0.125" stroke-miterlimit="10" points="31.5,106.2 39.5,87.1 47.5,106.2 
	39.5,112.6 "/>
<polygon fill="none" stroke="#000000" stroke-width="0.125" stroke-miterlimit="10" points="14.9,106.2 22.8,87.1 30.9,106.2 
	22.8,112.6 "/>
<polygon fill="none" stroke="#000000" stroke-width="0.125" stroke-miterlimit="10" points="22.5,61.3 14.6,80.4 6.5,61.3 
	14.6,54.9 "/>
<polygon fill="none" stroke="#000000" stroke-width="0.125" stroke-miterlimit="10" points="39.1,61.3 31.2,80.4 23.1,61.3 
	31.2,54.9 "/>
<polygon opacity="0.75" fill="#A1D07C" stroke="#000000" stroke-width="0.125" stroke-miterlimit="10" points="31.5,80.4 39.5,61.3 
	47.5,80.4 39.5,86.8 "/>
<polygon fill="none" stroke="#000000" stroke-width="0.125" stroke-miterlimit="10" points="14.9,80.4 22.8,61.3 30.9,80.4 
	22.8,86.8 "/>
<polygon fill="none" stroke="#000000" stroke-width="0.125" stroke-miterlimit="10" points="22.5,-15.9 14.6,3.2 6.5,-15.9 
	14.6,-22.3 "/>
<polygon fill="none" stroke="#000000" stroke-width="0.125" stroke-miterlimit="10" points="39.1,-15.9 31.2,3.2 23.1,-15.9 
	31.2,-22.3 "/>
<polygon fill="none" stroke="#000000" stroke-width="0.125" stroke-miterlimit="10" points="31.5,3.2 39.5,-15.9 47.5,3.2 39.5,9.6 
	"/>
<polygon fill="none" stroke="#000000" stroke-width="0.125" stroke-miterlimit="10" points="14.9,3.2 22.8,-15.9 30.9,3.2 22.8,9.6 
	"/>
<polygon fill="none" stroke="#000000" stroke-width="0.125" stroke-miterlimit="10" points="5.7,35.5 -2.2,54.6 -10.3,35.5 
	-2.2,29.1 "/>
<polygon fill="none" stroke="#000000" stroke-width="0.125" stroke-miterlimit="10" points="5.7,9.9 -2.2,29 -10.3,9.9 -2.2,3.5 "/>
<polygon fill="none" stroke="#000000" stroke-width="0.125" stroke-miterlimit="10" points="5.7,87.1 -2.2,106.2 -10.3,87.1 
	-2.2,80.7 "/>
<polygon fill="none" stroke="#000000" stroke-width="0.125" stroke-miterlimit="10" points="5.7,61.3 -2.2,80.4 -10.3,61.3 
	-2.2,54.9 "/>
<polygon fill="none" stroke="#000000" stroke-width="0.125" stroke-miterlimit="10" points="5.7,-15.9 -2.2,3.2 -10.3,-15.9 
	-2.2,-22.3 "/>
<polygon fill="none" stroke="#000000" stroke-width="0.125" stroke-miterlimit="10" points="-1.8,54.6 6.2,35.5 14.2,54.6 6.2,61 
	"/>
<polygon fill="none" stroke="#000000" stroke-width="0.125" stroke-miterlimit="10" points="-1.8,29 6.2,9.9 14.2,29 6.2,35.4 "/>
<polygon fill="none" stroke="#000000" stroke-width="0.125" stroke-miterlimit="10" points="-1.8,106.2 6.2,87.1 14.2,106.2 
	6.2,112.6 "/>
<polygon fill="none" stroke="#000000" stroke-width="0.125" stroke-miterlimit="10" points="-1.8,80.4 6.2,61.3 14.2,80.4 6.2,86.8 
	"/>
<polygon fill="none" stroke="#000000" stroke-width="0.125" stroke-miterlimit="10" points="-1.8,3.2 6.2,-15.9 14.2,3.2 6.2,9.6 
	"/>
<polygon fill="none" stroke="#000000" stroke-width="0.125" stroke-miterlimit="10" points="105.7,-15.9 97.8,3.2 89.7,-15.9 
	97.8,-22.3 "/>
<polygon fill="none" stroke="#000000" stroke-width="0.125" stroke-miterlimit="10" points="122.4,-15.9 114.4,3.2 106.4,-15.9 
	114.4,-22.3 "/>
<polygon fill="none" stroke="#000000" stroke-width="0.125" stroke-miterlimit="10" points="139,-15.9 131,3.2 123,-15.9 131,-22.3 
	"/>
<polygon fill="none" stroke="#000000" stroke-width="0.125" stroke-miterlimit="10" points="131.3,3.2 139.3,-15.9 147.3,3.2 
	139.3,9.6 "/>
<polygon fill="none" stroke="#000000" stroke-width="0.125" stroke-miterlimit="10" points="114.7,3.2 122.7,-15.9 130.7,3.2 
	122.7,9.6 "/>
<polygon fill="none" stroke="#000000" stroke-width="0.125" stroke-miterlimit="10" points="98.1,3.2 106,-15.9 114.1,3.2 106,9.6 
	"/>
<polygon fill="none" stroke="#000000" stroke-width="0.125" stroke-miterlimit="10" points="155.6,35.5 147.7,54.6 139.6,35.5 
	147.7,29.1 "/>
<polygon fill="none" stroke="#000000" stroke-width="0.125" stroke-miterlimit="10" points="172.3,35.5 164.3,54.6 156.3,35.5 
	164.3,29.1 "/>
<polygon fill="none" stroke="#000000" stroke-width="0.125" stroke-miterlimit="10" points="148,54.6 156,35.5 164,54.6 156,61 "/>
<polygon fill="none" stroke="#000000" stroke-width="0.125" stroke-miterlimit="10" points="155.6,9.9 147.7,29 139.6,9.9 
	147.7,3.5 "/>
<polygon fill="none" stroke="#000000" stroke-width="0.125" stroke-miterlimit="10" points="172.3,9.9 164.3,29 156.3,9.9 
	164.3,3.5 "/>
<polygon fill="none" stroke="#000000" stroke-width="0.125" stroke-miterlimit="10" points="148,29 156,9.9 164,29 156,35.4 "/>
<polygon fill="none" stroke="#000000" stroke-width="0.125" stroke-miterlimit="10" points="155.6,87.1 147.7,106.2 139.6,87.1 
	147.7,80.7 "/>
<polygon fill="none" stroke="#000000" stroke-width="0.125" stroke-miterlimit="10" points="172.3,87.1 164.3,106.2 156.3,87.1 
	164.3,80.7 "/>
<polygon fill="none" stroke="#000000" stroke-width="0.125" stroke-miterlimit="10" points="148,106.2 156,87.1 164,106.2 
	156,112.6 "/>
<polygon fill="none" stroke="#000000" stroke-width="0.125" stroke-miterlimit="10" points="155.6,61.3 147.7,80.4 139.6,61.3 
	147.7,54.9 "/>
<polygon fill="none" stroke="#000000" stroke-width="0.125" stroke-miterlimit="10" points="172.3,61.3 164.3,80.4 156.3,61.3 
	164.3,54.9 "/>
<polygon fill="none" stroke="#000000" stroke-width="0.125" stroke-miterlimit="10" points="148,80.4 156,61.3 164,80.4 156,86.8 
	"/>
<polygon fill="none" stroke="#000000" stroke-width="0.125" stroke-miterlimit="10" points="155.6,-15.9 147.7,3.2 139.6,-15.9 
	147.7,-22.3 "/>
<polygon fill="none" stroke="#000000" stroke-width="0.125" stroke-miterlimit="10" points="172.3,-15.9 164.3,3.2 156.3,-15.9 
	164.3,-22.3 "/>
<polygon fill="none" stroke="#000000" stroke-width="0.125" stroke-miterlimit="10" points="148,3.2 156,-15.9 164,3.2 156,9.6 "/>
</svg>
